<?xml version="1.0" standalone="no"?>
<!DOCTYPE svg PUBLIC "-//W3C//DTD SVG 20010904//EN"
 "http://www.w3.org/TR/2001/REC-SVG-20010904/DTD/svg10.dtd">
<svg version="1.0" xmlns="http://www.w3.org/2000/svg"
 width="700.000000pt" height="700.000000pt" viewBox="0 0 700.000000 700.000000"
 preserveAspectRatio="xMidYMid meet">
<metadata>
Created by potrace 1.11, written by Peter Selinger 2001-2013
</metadata>
<g transform="translate(0.000000,700.000000) scale(0.100000,-0.100000)"
fill="#000000" stroke="none">
<path d="M3112 6549 c-90 -45 -253 -241 -352 -423 -73 -135 -102 -295 -70
-390 33 -101 134 -219 320 -373 327 -272 371 -412 218 -704 -57 -109 -120
-181 -196 -222 -144 -78 -360 -66 -517 28 -121 73 -173 145 -260 358 -36 87
-87 186 -105 201 -8 8 -26 17 -38 21 -41 12 -103 -67 -151 -188 -101 -260
-126 -397 -125 -692 0 -330 18 -471 97 -775 34 -131 40 -171 41 -260 1 -89 -3
-113 -22 -154 -18 -41 -64 -94 -82 -97 -3 0 -14 -3 -25 -5 -110 -26 -262 37
-360 149 -140 160 -195 411 -172 773 6 82 4 93 -14 112 -27 29 -51 28 -84 -5
-71 -70 -214 -345 -298 -573 -47 -129 -91 -273 -122 -405 -14 -60 -28 -121
-31 -135 -3 -14 -8 -38 -11 -55 -2 -16 -6 -36 -9 -44 -8 -25 -18 -173 -18
-281 0 -116 9 -217 25 -289 6 -25 12 -54 14 -65 3 -10 -7 -46 -22 -80 -22 -54
-25 -70 -20 -136 12 -145 77 -260 257 -454 112 -120 219 -211 379 -321 119
-82 159 -98 216 -85 19 4 35 5 35 1 0 -12 180 -126 290 -185 160 -84 365 -175
454 -200 69 -20 135 -35 266 -60 275 -53 307 -59 385 -70 79 -12 114 -15 266
-22 353 -17 455 -11 779 45 60 10 245 50 380 83 47 11 92 21 100 23 64 13 227
63 320 98 158 60 320 148 446 243 94 70 279 248 349 336 27 35 52 65 55 68 13
12 70 93 128 180 83 125 212 389 255 520 84 256 96 305 134 545 10 61 11 401
1 508 -7 86 -24 117 -64 117 -76 0 -113 -60 -129 -205 -15 -139 -42 -235 -97
-337 -37 -70 -121 -161 -157 -171 -18 -4 -21 -3 -12 6 19 19 12 73 -25 200
-28 96 -37 145 -41 232 -5 117 3 172 52 335 47 154 48 238 3 289 -16 18 -15
23 3 83 76 243 77 482 3 616 -52 93 -135 206 -188 255 -92 85 -426 267 -490
267 -78 0 -96 -58 -92 -304 3 -183 -8 -297 -39 -419 -17 -67 -78 -198 -110
-237 -114 -140 -257 -203 -445 -195 -97 3 -120 8 -194 35 -171 65 -261 300
-202 530 27 105 73 200 192 401 167 280 208 364 248 509 73 266 -2 517 -183
609 -22 12 -67 27 -99 35 -57 13 -83 13 -398 2 -122 -5 -152 -3 -215 15 -100
28 -179 72 -243 135 -123 123 -160 291 -109 499 19 78 22 106 14 127 -16 43
-41 50 -89 27z m-117 -436 c4 -21 9 -51 12 -68 34 -212 223 -415 446 -479 81
-23 192 -32 392 -29 194 2 252 -9 327 -60 174 -118 126 -366 -156 -807 -174
-271 -220 -366 -251 -516 -16 -77 -21 -219 -10 -279 38 -205 161 -363 352
-452 104 -48 175 -65 293 -69 205 -7 351 51 502 200 143 140 275 380 303 547
4 24 9 53 11 64 4 20 5 132 1 260 -2 66 -1 70 21 73 62 9 242 -156 320 -290
81 -141 81 -332 0 -538 -27 -71 -34 -77 -88 -84 -65 -8 -194 -45 -665 -191
-60 -18 -144 -43 -185 -55 -41 -11 -86 -25 -100 -30 -14 -5 -63 -20 -110 -34
-47 -14 -310 -94 -585 -177 -275 -83 -520 -157 -545 -164 -120 -35 -397 -117
-410 -122 -20 -8 -21 -8 -135 -42 -846 -253 -1488 -463 -1678 -549 l-65 -30
-11 57 c-6 31 -15 85 -20 121 -9 69 -7 307 3 356 3 16 8 49 11 74 8 60 51 261
71 330 8 30 21 76 28 102 17 64 42 98 70 98 26 0 40 -22 60 -100 63 -247 235
-502 390 -582 53 -27 86 -33 181 -32 129 1 237 46 313 128 87 94 115 197 108
394 -5 136 -21 226 -85 464 -90 333 -109 456 -105 668 4 226 24 333 67 349 32
12 52 -5 94 -83 56 -105 204 -249 308 -303 116 -60 205 -82 323 -78 280 7 471
137 664 454 86 141 121 237 121 336 1 63 -4 91 -23 134 -30 68 -116 184 -206
277 -38 40 -124 128 -190 197 -184 191 -233 279 -240 433 -4 89 7 142 32 161
23 17 30 10 39 -34z m2672 -2669 c2 -7 -11 -52 -30 -101 -30 -76 -52 -165 -82
-338 -12 -68 -16 -89 -18 -91 -1 -1 -44 53 -96 120 l-94 123 -59 -19 c-75 -23
-80 -26 -74 -46 3 -10 8 -73 12 -142 3 -69 8 -141 9 -160 2 -19 5 -61 6 -92 1
-31 5 -56 8 -54 3 2 26 9 50 16 l43 11 -7 127 c-3 70 -8 144 -11 165 -2 20 -2
37 0 37 3 0 51 -60 107 -132 56 -73 106 -134 111 -136 4 -2 8 -7 8 -11 0 -5
18 -40 39 -79 23 -42 37 -80 34 -91 -7 -29 -96 -67 -368 -156 -266 -88 -627
-211 -660 -225 -11 -5 -63 -23 -115 -40 -52 -18 -212 -73 -355 -122 -143 -49
-278 -96 -300 -103 -22 -7 -186 -63 -365 -125 -179 -61 -435 -150 -570 -196
-135 -46 -317 -109 -405 -139 -88 -31 -279 -96 -425 -144 -146 -49 -315 -109
-376 -134 -130 -54 -156 -60 -205 -47 -42 12 -249 161 -249 180 0 4 20 13 44
20 l45 12 -4 52 c-2 28 -7 96 -10 151 -10 171 -17 270 -19 272 -2 2 -24 -4
-51 -13 l-47 -17 6 -96 c3 -53 8 -141 11 -196 3 -55 8 -117 10 -137 2 -21 1
-38 -3 -38 -4 0 -51 42 -103 93 l-96 92 -2 66 -2 65 60 19 61 18 0 44 c0 30
-4 43 -14 43 -7 0 -56 -13 -107 -30 -52 -16 -97 -30 -101 -30 -15 0 -47 79
-59 144 -12 62 -11 68 7 94 38 51 354 197 589 272 55 17 172 54 260 80 88 27
282 89 430 139 149 49 484 151 745 226 261 74 486 139 500 144 14 5 57 18 95
29 96 28 221 66 565 172 162 51 300 93 305 94 6 1 51 15 100 30 50 15 135 41
190 58 55 16 111 33 125 38 23 8 126 39 345 105 50 15 167 52 260 82 225 72
288 82 302 47z m278 -1064 c32 -100 -173 -542 -384 -830 -140 -191 -339 -396
-477 -490 -93 -62 -262 -148 -362 -184 -68 -24 -348 -98 -417 -110 -16 -3 -75
-14 -130 -25 -55 -11 -143 -27 -195 -36 -89 -14 -107 -17 -177 -30 -57 -10
-182 -18 -298 -18 -121 0 -378 11 -414 18 -11 2 -51 6 -88 10 -37 3 -93 10
-123 15 -30 5 -71 11 -90 14 -263 38 -481 116 -685 244 -86 54 -150 98 -163
110 -7 6 -18 12 -23 12 -5 0 -9 4 -9 10 0 5 21 16 48 24 26 8 85 29 131 45 98
36 110 37 159 12 142 -72 645 -221 857 -255 17 -2 50 -8 75 -11 25 -4 52 -9
61 -10 128 -24 423 -24 554 0 214 39 456 111 800 238 140 52 332 163 385 224
81 91 78 178 -7 202 -40 12 -95 -13 -279 -127 -157 -96 -237 -137 -364 -185
-167 -64 -290 -98 -432 -122 -18 -3 -40 -8 -48 -10 -8 -2 -44 -7 -80 -10 -36
-4 -76 -9 -90 -11 -36 -5 -331 -5 -360 0 -14 2 -54 7 -90 11 -92 9 -123 14
-230 37 -192 41 -513 146 -480 156 8 3 112 38 230 79 l215 74 126 -20 c188
-31 241 -36 394 -36 192 0 296 18 485 82 65 22 384 150 429 173 9 4 52 23 96
41 204 84 287 182 224 263 -25 31 -67 55 -92 51 -24 -4 -88 -38 -166 -89 -299
-195 -658 -318 -962 -329 -115 -4 -138 5 -68 25 30 9 160 53 289 98 129 45
312 108 405 140 94 32 289 99 435 150 310 107 438 150 652 219 86 27 192 64
235 81 73 30 80 31 123 18 88 -25 184 -8 300 53 66 35 67 35 75 9z"/>
<path d="M4895 3027 c-78 -27 -156 -96 -187 -165 -53 -119 -32 -266 46 -317
57 -38 161 -33 232 11 116 71 173 178 161 302 -10 116 -66 176 -166 178 -31 1
-69 -3 -86 -9z m115 -112 c28 -25 43 -80 36 -132 -18 -147 -197 -221 -252
-104 -53 111 44 268 159 256 21 -2 47 -11 57 -20z"/>
<path d="M4535 2902 l-50 -17 3 -75 c2 -41 5 -91 7 -110 2 -19 7 -91 10 -160
4 -69 8 -126 9 -127 2 -2 24 4 50 13 l48 17 -7 131 c-4 72 -8 149 -10 171 -2
22 -4 70 -6 108 -1 37 -2 67 -3 67 -1 -1 -23 -9 -51 -18z"/>
<path d="M4230 2807 l-155 -52 4 -45 c1 -25 4 -46 5 -48 2 -1 28 7 60 18 42
14 58 16 61 7 2 -7 6 -64 10 -127 6 -115 16 -233 19 -237 2 -2 24 4 50 13 l48
16 -6 62 c-3 33 -8 120 -12 192 l-6 130 61 17 62 17 -2 45 c-2 38 -6 45 -23
44 -12 0 -91 -24 -176 -52z"/>
<path d="M3949 2718 c-37 -9 -37 -10 -32 -56 3 -25 5 -105 6 -179 l2 -132 -31
-31 c-61 -62 -133 -33 -135 54 -1 22 -3 52 -5 66 -1 14 -3 56 -5 95 -1 38 -5
79 -8 91 -6 21 -8 21 -54 7 l-49 -14 6 -72 c3 -40 8 -112 11 -162 7 -108 17
-144 51 -176 22 -20 35 -24 92 -24 100 1 173 50 215 144 18 41 19 58 12 210
-4 91 -8 172 -8 179 0 14 -17 14 -68 0z"/>
<path d="M3353 2526 c-17 -6 -34 -14 -37 -17 -11 -10 -158 -511 -152 -516 3
-3 25 0 50 7 42 12 45 14 60 69 l16 58 83 26 c89 28 85 29 119 -32 l17 -30 48
17 c26 9 49 17 51 18 2 1 -14 35 -36 76 -22 40 -70 130 -106 200 -37 70 -71
130 -74 132 -4 2 -21 -2 -39 -8z m40 -211 l27 -55 -25 -10 c-59 -23 -75 -23
-72 -4 7 44 31 124 37 124 3 0 18 -25 33 -55z"/>
<path d="M2930 2404 c-83 -30 -133 -75 -178 -159 -23 -44 -27 -62 -27 -141 0
-81 3 -95 27 -131 51 -78 153 -97 252 -49 56 27 116 85 116 111 0 8 -17 22
-37 30 l-37 16 -34 -36 c-40 -41 -71 -51 -114 -39 -48 14 -72 54 -72 122 0
109 69 187 160 180 44 -3 49 0 77 35 28 34 29 39 15 53 -23 23 -95 27 -148 8z"/>
<path d="M2285 2126 l-40 -12 2 -119 c2 -66 5 -139 7 -162 3 -24 3 -43 2 -43
-3 0 -147 185 -202 258 -1 2 -31 -5 -65 -15 l-64 -19 1 -80 c1 -72 14 -301 19
-349 1 -11 3 -28 4 -37 1 -17 4 -17 49 0 42 16 47 21 46 47 -1 17 -4 91 -8
165 -6 124 -5 133 9 115 9 -11 55 -71 103 -132 47 -62 93 -113 102 -112 8 0
38 9 65 18 42 15 50 22 49 42 -1 13 -4 71 -8 129 -3 58 -9 150 -12 205 -4 55
-9 103 -13 106 -3 4 -24 1 -46 -5z"/>
<path d="M1595 1918 c-80 -29 -148 -91 -184 -167 -21 -46 -26 -70 -26 -136 1
-90 15 -127 65 -168 93 -79 279 -20 357 113 73 123 56 287 -36 347 -38 25
-121 30 -176 11z m104 -103 c80 -41 68 -199 -21 -267 -76 -58 -166 -38 -188
42 -23 85 10 171 83 215 48 28 85 31 126 10z"/>
</g>
</svg>
