<svg width="115" height="115" viewBox="0 0 115 115" fill="none" xmlns="http://www.w3.org/2000/svg">
<path d="M71.5582 30.1133H44.1918C39.6987 30.1133 35.3897 31.8981 32.2126 35.0752C29.0356 38.2523 27.2507 42.5613 27.2507 47.0544V76.0497C27.2507 80.5428 29.0356 84.8518 32.2126 88.0289C35.3897 91.206 39.6987 92.9908 44.1918 92.9908H71.5582C76.0513 92.9908 80.3603 91.206 83.5374 88.0289C86.7144 84.8518 88.4993 80.5428 88.4993 76.0497V47.0544C88.4993 42.5613 86.7144 38.2523 83.5374 35.0752C80.3603 31.8981 76.0513 30.1133 71.5582 30.1133ZM57.875 76.7013C53.9004 76.7013 50.0885 75.1224 47.278 72.3119C44.4676 69.5014 42.8886 65.6896 42.8886 61.715C42.8886 57.7403 44.4676 53.9285 47.278 51.118C50.0885 48.3075 53.9004 46.7286 57.875 46.7286C67.9745 47.0544 73.1872 53.5702 72.8614 61.715C72.8614 65.6896 71.2825 69.5014 68.472 72.3119C65.6615 75.1224 61.8496 76.7013 57.875 76.7013ZM76.4451 47.3802C75.6074 47.3802 74.7886 47.1318 74.0921 46.6664C73.3956 46.201 72.8527 45.5396 72.5322 44.7657C72.2116 43.9918 72.1277 43.1402 72.2912 42.3186C72.4546 41.4971 72.858 40.7424 73.4503 40.1501C74.0426 39.5578 74.7972 39.1544 75.6188 38.991C76.4404 38.8276 77.2919 38.9115 78.0658 39.232C78.8397 39.5526 79.5012 40.0954 79.9666 40.7919C80.4319 41.4884 80.6803 42.3072 80.6803 43.1449C80.6803 44.2682 80.2341 45.3454 79.4399 46.1397C78.6456 46.934 77.5683 47.3802 76.4451 47.3802Z" fill="#BF212E"/>
<circle cx="57.5" cy="57.5" r="56" stroke="#F2F2F2" stroke-width="3" stroke-dasharray="40 40"/>
</svg>
