<svg width="139" height="139" viewBox="0 0 139 139" fill="none" xmlns="http://www.w3.org/2000/svg">
<path d="M97.3835 55.4231V57.1552C97.3835 75.7759 83.0932 97.4278 57.1109 97.4278C48.8832 97.4278 41.5215 95.2626 35.459 90.9322H38.9233C45.4189 90.9322 51.9144 88.767 56.6779 84.8697C50.6153 84.8697 45.4189 80.5393 43.2537 74.9098C44.1197 74.9098 44.9858 75.3428 45.8519 75.3428C47.151 75.3428 48.4501 75.3428 49.7492 74.9098C43.2537 73.6107 38.4903 67.9812 38.4903 61.0526C40.2224 61.9187 42.3876 62.7847 44.9858 62.7847C41.0885 60.1865 38.4903 55.8561 38.4903 51.0927C38.4903 48.4945 39.3563 45.8962 40.2224 43.731C47.151 52.3918 57.5439 58.0213 69.669 58.4543C69.236 57.5883 69.236 56.2892 69.236 55.4231C69.236 47.6284 75.7316 41.1328 83.5262 41.1328C87.4236 41.1328 91.3209 42.865 93.9192 45.4632C96.9504 45.0302 100.415 43.731 103.013 41.9989C102.147 45.4632 99.5487 48.0614 96.9504 49.7936C99.9817 49.3605 102.58 48.4945 105.178 47.6284C102.58 51.0927 99.9817 53.6909 97.3835 55.4231Z" fill="#BF212E"/>
<circle cx="70.5" cy="63.5" r="56" stroke="#F2F2F2" stroke-width="3" stroke-dasharray="40 40"/>
</svg>
