<svg data-name="Layer 1" xmlns="http://www.w3.org/2000/svg" width="398" height="414.9"><path d="M253.6 294.2c-.2-.5 0-.8.4-1.1a6.4 6.4 0 00.4-2.4 2.3 2.3 0 00-1.6-2.6 6.6 6.6 0 01-3.2-3c-.7-1.5-2.1-1.9-3.3-.7s-2.8 2.6-4 4.1a60.7 60.7 0 00-6.5 10.2 67.5 67.5 0 01-4.5 6.9 6.5 6.5 0 00-2.3-2.8 6.9 6.9 0 01-1.1-1.3 35.9 35.9 0 00-4.2-6c-1-1.4-2.1-2.8-3.2-4.1l-4.8-6.2c-.9-1.1-2-2.2-2.8-3.4a33 33 0 00-2.6-3.9c-2.6-2.8-4.6-6.1-7.1-9s-2.7-3.5-4.1-5.2-4.7-6.1-7-9.1-4.4-5.5-6.4-8.3-2.6-3.3-3.8-5a13.7 13.7 0 00-1.3-2 20.2 20.2 0 01-2.6-3.2 9.2 9.2 0 00-1.3-2.1 21.9 21.9 0 01-2.5-3.7 27.3 27.3 0 00-4-5.6 6 6 0 01-1.6-1.9c-1.1-2.6-3.2-4.7-4.3-7.4 0-.1-.2-.1-.2-.2a7.6 7.6 0 01-1.8-2.2c-1.3-2.3-3.2-4.3-4.2-6.9v-.2a14.9 14.9 0 01-2.9-4.6c-1.5-2.5-2.6-5.3-4-7.9a67.4 67.4 0 01-3-7.4c-.5-1.2-.3-1.4.9-1.4a29.5 29.5 0 004.2.2 11.4 11.4 0 013.7.4 1.9 1.9 0 001.8-.4 4 4 0 001.5-1.9c.9-2.7 1.8-5.3 2.9-7.8a28 28 0 001.2-5 6.5 6.5 0 00.4-2 29 29 0 011.5-7.1 27.7 27.7 0 001-2.6c.6-2.3 1.4-4.5 2-6.7s1.3-4.9 2.1-7.2a21.1 21.1 0 011.7-5 10.5 10.5 0 001-2.8 70.8 70.8 0 012.8-10c1-3 1.7-6 2.5-9.1a20.8 20.8 0 01.3-2.3c.5-1.2.7-2.5 1.1-3.7a40.1 40.1 0 00.8-5c.4-2.2 1.4-4.3 1.4-6.7 0-.3 0-.9.3-1s2-1.4 3.1-1.3 3.6-.8 5.4-1.3.8-.9.2-1.6-3-.6-4.5-.9-3.6 1.4-5.4 2a3.6 3.6 0 00-3 3.5 19.1 19.1 0 01-.6 3.3c-.3 1.9-1.1 3.7-1.5 5.6s-.5 2.9-.9 4.2c-.9 3.3-1.9 6.6-3 9.8s-1.3 5.4-2.3 8.1a11.5 11.5 0 00-1 2.3c-.2 1.9-1.2 3.5-1.6 5.4s-.9 3.7-1.5 5.6-.9 4.7-1.9 6.9a10.7 10.7 0 00-1.1 3.3 28.8 28.8 0 01-1 5.1c-.5 1.6-.6 3.3-1.6 4.8s-.1.5-.1.6-.1 1-.2 1.4-.7 1.2-.8 1.8a30.7 30.7 0 01-1.3 5c-.5 1.6-1.3 3.1-1.9 4.7s-.2 1.4-.8 1.9a1.1 1.1 0 00-.4 1.6c.1.2.2 1-.5 1s-1.2.3-1.8.2c-3.1-.2-6.2-.1-9.3 0a13 13 0 01-5.1-.6c-2.9-1-6-1.1-9-2l-1.4-.4a70.9 70.9 0 01-9.3-2.6c-2.9-1-5.5-2.5-8.3-3.6a15.3 15.3 0 01-4.7-2.5c-1-.9-1.9-1.6-1.1-3.1a2.2 2.2 0 00.1-1.8 2.6 2.6 0 010-1.5 34 34 0 00.8-4.6c.2-2 .5-3.9.8-5.8s.9-5.4 1.5-8c.2-1.1.6-2.2.7-3.3s.4-2.7.7-4.1.9-4.5 1.3-6.8a21.9 21.9 0 011.2-4.9 45 45 0 002.4-8.9 55.9 55.9 0 011.1-5.9 12.7 12.7 0 00.6-3.9c0-1.6.6-3 .7-4.6s1.4-5.2 1.2-7.9a2.5 2.5 0 011.5.5c2 1.2 4.1.9 6.1.2s1.4-1 1.2-1.6-1-.5-1.6-.5a4 4 0 01-3.4-1 2.2 2.2 0 00-1.3-.6A29.2 29.2 0 01115 90c-1.5-.6-2.7-1.7-4.3-2.2a36 36 0 01-6.8-3.4 57 57 0 00-5.4-3 36.5 36.5 0 01-6.1-3.4c-.7-.4-.7-.9-.1-1.3a16.7 16.7 0 011.6-1.2c.7-.4 1.4-1.1 1.3-1.9a2.4 2.4 0 00-1.6-1.9 2.3 2.3 0 00-2.5.4c-1 1.1-2.3 1.9-3.2 3.1s-4.2 3.9-5.7 6.4a14.9 14.9 0 01-3.8 4.1 10 10 0 00-1.9 2.2 17.1 17.1 0 01-2.1 2.6c-1.2 1.1-2.4 2-3.5 3.2a14.8 14.8 0 01-3.3 2.8c-2.5 1.7-4.9 3.5-7.3 5.3a15.9 15.9 0 01-3.9 2.7c-.2.3-.2 1.1-.6 1s.3-.8.2-1.2v-.2a54.8 54.8 0 013.1-5.2c1.2-1.9 2.1-4 3.4-5.9l3.7-5c1-1.3 1.8-2.6 2.6-3.8l4-5.2c1.4-1.8 2.4-3.8 3.9-5.5s3.7-4.3 5.4-6.6a35.6 35.6 0 013.9-4.8 4.5 4.5 0 013.4-1.4h2c3.4.2 6.8 1.1 10.2 1.5a10.9 10.9 0 012.6.4c2.7.8 5.5.7 8.2 1.4a61.8 61.8 0 006.2.7 10.6 10.6 0 001.9.4c2.8 0 5.4.8 8.1 1.2s3.3.9 5 1c3.7.2 7.2 1.4 10.9 2a2 2 0 00.2 2.4 1.4 1.4 0 01.4 1.1 31.5 31.5 0 00.9 4.2c.5 2.7 1.7 5.2 2.6 7.8.2.6 1 1.2 1 1.9s.8 2 .9 3 .6.8 1.1.6a2 2 0 001.6-1c1.5-3.1 3.8-5.4 5.9-8.1 1.7 1.4 3.8 2.1 5.4 3.7a22.7 22.7 0 003.5 2.6c.8.6 1.5.2 1.6-.8v-.8c-.1-1.9 0-3.9-.2-5.8a54.3 54.3 0 01.2-5.7c0-1.3.4-1.7 1.6-1.4a9.9 9.9 0 011.8.2 37.3 37.3 0 008.2.6c4.3 0 8.7-.2 13 .7 1.1.2 2 .6 3.1.7a60.5 60.5 0 0110.5 1.7 5.5 5.5 0 013.8 2.6c.6 1.3 1.5 2.8 1.4 4.4a5 5 0 00.2 1.2 28 28 0 011.3 6.4c.4 2.3.9 4.5 1.2 6.8s2 5.8 2.1 8.9v.3c.5 1.2.1 2.6 1.1 3.6.8 3.3 1 6.7 2 9.9s1.3 5.9 2.2 8.7a2.9 2.9 0 01-.6 3.2c-2-1.3-4.2-2.3-5.9-4s-2.2-2.5-3.7-3.3a2.8 2.8 0 01-1.5-1.7c-.7-1.3-1.3-2.7-2.1-4a93.3 93.3 0 01-5-10c-1.9-4.1-3.4-8.5-5.6-12.6-1.1-2-2.2-4.1-3.1-6.2a18.4 18.4 0 01-.9-2.5c-.2-1-1.4-1.1-1.8-1.9s-.2-.4-.5-.3a.7.7 0 00-.3.6 26.4 26.4 0 01-.2 2.8 3.9 3.9 0 001 3.1 13.2 13.2 0 012 3.2c.9 2.4 2.2 4.5 3.2 6.8s2.4 5 3.6 7.5 3.3 7.3 5 10.9a1.1 1.1 0 01-.3 1.6 15.1 15.1 0 00-3.2 4.3 3.6 3.6 0 00-.1 3.2c.8 1.7 2.1 2.9 3 4.4s2.6 2.8 3.6 4.5a10.4 10.4 0 002.3 2.8 12 12 0 012.7 2.8c1.2 1.9 2.4 3.8 3.7 5.7a37.5 37.5 0 002.4 3.6l1.9 1.6a37.6 37.6 0 003.1 2.5 7.5 7.5 0 004.8 1.4c.9-.1 1.6.6 2.5.2a16.4 16.4 0 012.3-.2c.9-.2 2 .2 2.8-.6l1.9-1.3a19.9 19.9 0 005.8-5.4c.6-.7.4-1.5.9-2.2s2-3.6 3.4-5.1a2.3 2.3 0 00.7-1 8 8 0 012.2-3.3c1.4-1.6 2.4-3.5 3.7-5.2a54 54 0 013.3-4.6 48.1 48.1 0 004.2-5.6 5.7 5.7 0 00-.3-5.9c-1.1-1.6-2.4-1.6-3.7-.1s-.5 1.2-1 1.7l-3 3a35.1 35.1 0 01-3.4 3.3c-.3.2-.6.5-1 .2s1.1-1.9 1.5-2.8c1.6-4.3 3.3-8.5 5.2-12.6.7-1.5.1-3.5-1.2-4a5 5 0 00-3.6 0c-.6.2-1 1-1.6.5s-.1-1.3.1-1.9a3.6 3.6 0 000-2.3 1.9 1.9 0 00-.3-.8 3.6 3.6 0 00-4.9-.3l-.9.8a.8.8 0 01-1.2 0 10.5 10.5 0 00-3-1.2c-2.1-.5-3.1 0-3.9 2a28.5 28.5 0 01-2.6 5.6c-1 1.5-1.5 3.2-2.4 4.7s-1.3 4-2.8 5.7c-.2.1-.2.5-.3.7a33.3 33.3 0 01-3.8 6.6 3.2 3.2 0 01-1.2-2.6 31.4 31.4 0 00-1.7-6.7 82.6 82.6 0 01-2.7-10.9c-.7-3.9-1.7-7.7-2.7-11.5s-1-5.8-1.6-8.7c-.3-1.3-.2-2.7-.5-4s-.5-1.9.1-2.8a.7.7 0 00-.1-.6 17.9 17.9 0 00-1.2-2.4c-2.2-3-5.1-5.1-9.1-5.1-1.6 0-3.2-.3-4.8-.4a42.3 42.3 0 01-6.2-1.1c-3.9-.8-7.8-.6-11.7-.6a29.5 29.5 0 01-4.2-.1 44.8 44.8 0 01-8.1-1 1.5 1.5 0 00-1.7.7c-.5 1.1-.9 1.3-2 .9s-1.7-.2-1.9-1.3a15.5 15.5 0 01-.2-4.8c0-.6.2-.7.8-.7s3.5.6 5.3.5a10.3 10.3 0 013.5.6 2.5 2.5 0 002.8-.3 3.6 3.6 0 001.5-3.6 23.5 23.5 0 01-.5-5.9c.1-1.4.2-1.5 1.5-1.6h3.5c1.3 0 1.4 0 1.4-1.2s0-4.9.1-7.3.1-5.8.2-8.6a2.8 2.8 0 01.1-.9c.8-3.7-.5-6.7-2.9-9.4s-3.6-2.8-5.4-4.1a13.3 13.3 0 00-8.4-2.8c-.7 0-1.3.4-1.9.3a13.4 13.4 0 00-4.9 0 22 22 0 00-4.3.9c-1.5.6-2.3 2.1-3.8 2.6s-2.3 2.6-3.6 3.7a22.1 22.1 0 00-6.3 9.6 12.8 12.8 0 00-.6 5.5c0 .3.3.8.1 1.1a4.1 4.1 0 00.2 2.9 20 20 0 011.8 4.6c.4 1.6 1.3 3.1 1.8 4.6a3.7 3.7 0 001.1 1.8.7.7 0 01.3 1 9.9 9.9 0 00-.2 1.7c-.1 1.6-.3 3.2-.4 4.9a3.3 3.3 0 00-2.3-.4c-1.7-.2-3.4.1-4.8-1.1s-1-.2-1.6-.3a4.8 4.8 0 01-1.2 0c-3.6-1.1-7.3-1.3-11-1.9a20 20 0 00-2.4-.4c-3.2-.3-6.3-.9-9.4-1.5s-6.8-1.1-10.2-1.8l-6.4-1.1c-2.3-.3-4.6-.9-7-.7a1 1 0 01-.9-.4 1.5 1.5 0 00-2.2-.2 2.4 2.4 0 01-1.4.5 4 4 0 00-2.5 1.6c-1.2 1.5-2.7 2.8-3.5 4.7a9.4 9.4 0 01-.9 1.2 32.3 32.3 0 00-4.6 5.2 26.6 26.6 0 00-2.8 3.8 27 27 0 01-2.5 4c-1.2 2.1-2.2 4.4-4 6.2-.1.1 0 .3-.1.4-1.5 2.2-3 4.3-4.6 6.4s-1.8 2-2.7 3.2-1.7 2.7-2.5 4.1a34.4 34.4 0 01-3.9 5.5 16.9 16.9 0 00-5.4-4.9 12.7 12.7 0 01-5.5-6.2c-1.3-2.7-3.1-5.1-4.3-7.9s-2.6-5.1-3.3-7.8a2.9 2.9 0 00-4-2c-.7.3-1.2.8-2 1.1a2.1 2.1 0 00-1.4 2.7 38.6 38.6 0 001 4.9c.9 2.3 1.1 4.8 1.9 7.1a33.6 33.6 0 001.4 4.5c0 .2.2.5-.1.6s-.2-.3-.3-.5-1.5-1.8-2-3a18.5 18.5 0 00-2.9-4c-1.1-1.2-2-2.6-3-3.9a33.5 33.5 0 01-2.7-4.5c-.2-.4-.4-.7-.8-.8s-2.8-.9-4.1 0l-1.6 1a3.6 3.6 0 00-1 4.7c.7 1.1 1.6 2 2.2 3.1 1.8 3.2 3.2 6.5 5.1 9.6.2.2.1.5.2.7h.1c.1.3.6.6.2.9s-.6-.3-.8-.6a17 17 0 01-2.4-2.2 39 39 0 00-3.1-4c-1.4-1.6-2.8-3.3-5.2-3.4s-3.3.9-3.4 1.7-.6 3.2.5 4.7 2.5 2.8 3.1 4.7c0 .1.2.2.3.2a5.5 5.5 0 012.1 1.9c.9 1 1.3 2.4 2.3 3.3a38.8 38.8 0 012.6 3.1.8.8 0 01-.7 0 63.7 63.7 0 01-7.3-3.9 19.6 19.6 0 00-4.7-2 2.7 2.7 0 00-2.7.9 2.9 2.9 0 00.2 3.2 15.6 15.6 0 005.5 5 28.7 28.7 0 016.3 4.7 41.8 41.8 0 004.4 4c1.5 1.2 2.3 3.1 4.3 3.8l.3.4c2.1 2.8 4.7 5 7.1 7.5a34.8 34.8 0 005.8 5 14.7 14.7 0 005.6 2.4 8.5 8.5 0 003.9-.1 20.5 20.5 0 004.7-2.3 67.5 67.5 0 005.9-4.7 100 100 0 019-6.7 8.9 8.9 0 003.2-4.7 3.7 3.7 0 000-1.8 6.9 6.9 0 010-3.2 17.5 17.5 0 014.4-8.4 29.2 29.2 0 015.7-5.4 3.9 3.9 0 002-3c.3-1.1-.4-1.7-1-2.4a1.6 1.6 0 01.3-2.6 1.9 1.9 0 001-1.5c-.1-1.1.6-1.7 1.2-2.4l9.3-9.3c.5-.4.7-.4 1.1 0 1.9 2.2 4.5 3.3 6.9 4.6l5.5 3a30.7 30.7 0 003.9 2.3 89.6 89.6 0 018.2 4.1c.4.3 1 .5 1.2 1a3.3 3.3 0 00-1.3 2.8 5.8 5.8 0 01-.3 1.9c-.6 1.9-1.2 3.9-1.6 5.8s-.5 4.6-1 6.9-.8 3.4-1.1 5.1-1.1 2.8-.6 4.3a1.1 1.1 0 01-.1.8c-.8 1.4-.2 3.2-1.6 4.4a.5.5 0 000 .5c.4.5.1 1 0 1.5a9.5 9.5 0 00-.8 3.7c.1.3-.1.5-.1.8-.5 2.2-1 4.3-1.3 6.5s-.3 4.8-1.1 7.1a.7.7 0 00-.1.5c.2 1.2-.4 2.3-.5 3.4a25 25 0 01-.5 2.9c-.4 1.8-.4 3.6-.9 5.4a37.1 37.1 0 00-1 4.8c-.3 1.6-.2 3.7-2.4 4.5-.1.1-.4.3-.4.5s-.6 1.4-.8 2.2a6.8 6.8 0 01-1 2.7c-1.2 1.9-2.5 3.7-3.5 5.7a12.9 12.9 0 01-2.5 3.6c-2.3 2.1-3.6 5-6 7a2.5 2.5 0 00-.4.7 3.8 3.8 0 01-1.2 1.8c-1.6 1.8-2.4 4.1-3.9 5.9s0 1.2-.6 1.7-.8 2 .5 2.8a3.3 3.3 0 011.8 1.7c1 2.4 2.8 4.4 3.7 6.9.2.7.4-.1.5 0l.6.7c.6 1.3 1.6 2.3 2.3 3.5s2.3 3.6 3.4 5.5a21.1 21.1 0 012.1 3.1 35.7 35.7 0 004 6.8 34.7 34.7 0 013.7 5.7l.5.5 2.2 2.6c2 3 4.4 5.7 6.5 8.6s2.5 3.2 3.6 4.9 1.9 2.7 2.7 4.1 3.5 3.9 4.5 6.4c1 .4.9 1.5 1.5 2.1a44.4 44.4 0 012.7 3.8c.4.7 1.1 1.1 1.5 1.8l3.4 5.1c1.7 2.5 3.9 4.6 5.4 7.3a2.3 2.3 0 00.7.7c1.6 1.5 2.7 3.5 4.3 5.1s3.1 4.7 5 6.9 4.8 6.2 7.4 9.2 4 4.9 6.1 7.3c.5.5 1.3.9 1.4 1.6s.9 2 1.7 2.8a89.1 89.1 0 017 8l2.4 3.1c1 1.6 2.3 3.2 3.3 4.9s1.4 1 2.2 1.2 1.1-.6 1.5-1.2a4.5 4.5 0 013.5-1.8 78.7 78.7 0 00-2.9 7.6c-.3.9-1.1 1.6-1.2 2.3a22.4 22.4 0 01-1.4 3.9 1.3 1.3 0 000 1.2 5.1 5.1 0 002.4 3l2.3 1.2c2 .9 3.8 2.1 6.1 2a1.8 1.8 0 011.3.5c.6.6 1.2.4 1.9.3a2.7 2.7 0 002.4-3.1v-.5c1.2-4.2 2.6-8.4 3.5-12.6.2-.8.2-1.7.9-2.3a.3.3 0 01.3-.3.3.3 0 01-.1-.2v-.2h.4c.1-.2.1-.4.2-.6a55.2 55.2 0 011.5-6.8 21.2 21.2 0 001.3-5.1 54 54 0 001.1-5.8 7.2 7.2 0 01.6-2.9 17.4 17.4 0 001.7-4.5c-.1-.2-.3-.1-.5-.2a3.8 3.8 0 01-1.4-1.4c-.5-.7-1.4-.1-2-.6a1.5 1.5 0 01-.6-.5 4.3 4.3 0 00-1.7-1.3 8.3 8.3 0 01-1.5-1.1 1.6 1.6 0 00-2.1-.5c-1.8.7-2.2 2.4-2.9 3.9a16.4 16.4 0 00-1.7 5c-.2.7-1.2.7-.9 1.6s0 .3-.2.4-.3-.2-.3-.4c-1.4-2.1-2.4-4.4-3.9-6.4l-.6-1c-1.5-3-3.6-5.7-5.2-8.5l-3.7-5.9c-.4-.6-.9-1.1-.9-1.8a2.7 2.7 0 00-1.1-1.9c-.3-.4-.8-.8-.7-1.1s-.2-.7-.3-1.1-1.8-2.3-2.6-3.5-3.1-5.2-4.5-7.9a3.9 3.9 0 00-.8-1.4c-1.6-2.4-3.1-4.8-4.8-7.2-.6-.8-.9-1.9-1.5-2.7a12.1 12.1 0 01-1.8-2.8c-.4-1-1.6-1.3-1.5-2.5a24.7 24.7 0 01-2.7-4.4c-1.7-2.8-3.1-5.9-4.9-8.6a33 33 0 01-2.3-4.1c-1.8-3.4-3.4-7-5.7-10.2a8.3 8.3 0 01-1.7-3.2 1.6 1.6 0 01-1-1.1c-.2-.2-.4-.4-.3-.7s.2-.2.3 0a1.9 1.9 0 011 1.8c.2 0 .4 0 .5.2 1.4 1.7 3 3.5 4.4 5.3a42.6 42.6 0 004.1 5.4 4.9 4.9 0 001.5 1 2.3 2.3 0 011.5 1.4 9.2 9.2 0 002 3.1c2.1 2 3.4 4.8 5.3 7a49.4 49.4 0 003.6 4.4c.6.6 1 1.3 1.6 1.9s1.6 2.7 3 3.4a.5.5 0 01.3.4 10 10 0 001.8 2.6l6.4 7.2a18.3 18.3 0 013 3.3c1.4 2.7 3.9 4.4 5.7 6.7s1.9 2 2.8 3.1a78 78 0 006.1 6.8c2.5 2.4 4.4 5.2 6.8 7.7a7.1 7.1 0 002.1 1.5c.1.1.1.2.2.2 2.3 2.5 4.5 4.9 6.8 7.2s1.5 2.3 2.5 3.4 3.1 3.5 4.9 5.1 1.9 2.1 3.6 1.6.9.3 1.1 1a9.4 9.4 0 001.4 2.6c1 1.5.9 1.5.3 3.1s-.9 1-.7 1.8a.4.4 0 01-.5.3c-.6-.2-1 .2-1.5.3s-2 .8-1.7 2.2a2.5 2.5 0 001.8 2 7.1 7.1 0 011.8.8l6.4 5.1a6.8 6.8 0 003.8 2.1c1.9.3 2.6.1 3.2-1.6a58.9 58.9 0 002.1-5.9c.9-2.9 2.5-5.6 3.6-8.4a31.3 31.3 0 011.9-3.6c.6-1.1.8-2.8 1.9-3.4s1-2.3 2-3.1 0-.6.3-.8 1.9-2.6 2.5-4.2 1.2-3.1 1.9-4.6 2.3-5 3.4-7.4a5.4 5.4 0 00.4-2.2c-.4.2-.4.8-.9.8zM118 94.9v.2zm108.6 37.7a23.2 23.2 0 013.9-5.4 11 11 0 001.7-3.2c1-2 2.1-3.8 3-5.8s2.3-4 2.8-6.3c.1-.4.4-.5.6-.8a4.2 4.2 0 001.2-2.4 1.7 1.7 0 01.9-1.4c.3-.3.6-.6 1-.4s0 .7-.1 1l-1.2 3.5c-.9 2.2-1.5 4.5-2.6 6.6a9.6 9.6 0 00-1 3.4 9.2 9.2 0 01-.9 2.3 26.9 26.9 0 01-2.6 5.4 1.6 1.6 0 00-.2 1.2c.2.7.3 1.6 1.3 1.8s1.4-.5 1.8-1.1a12.2 12.2 0 001.4-3.6c.9-2.9 2.3-5.6 3.4-8.4a37.1 37.1 0 014-6.7 21.2 21.2 0 012.3-3.5c.6-.6.5-1.7 1.2-2.4l.5-.3a.5.5 0 01.7-.1c.2.2.1.5-.2.6-.8 2.5-1.3 5.1-2.5 7.4s-1.6 4.1-2.6 6a26.9 26.9 0 00-2.1 5.6 21.1 21.1 0 01-1.6 3.4 2.2 2.2 0 00.8 2.6c.5.4 1.6-.1 2-1l.5-1.5a28.8 28.8 0 014.8-7.9 6.1 6.1 0 001.1-2.1c.3-1.6 1.5-2.8 2.2-4.2s.9-1.4 1.3-2.1a1.4 1.4 0 012-.7c-.7 2.1-1 4.4-2.3 6.3a21.4 21.4 0 00-.9 2.7 74.9 74.9 0 01-4.7 9.4 3.6 3.6 0 01-.4.9 2.4 2.4 0 000 2.8 2.1 2.1 0 002.9-.3c1.7-2 3.9-3.2 5.6-5s4-3.5 5.9-5.6c.4.4.4.8.1 1.1a6.6 6.6 0 00-1.5 2.2 10.6 10.6 0 01-2.6 3 5.9 5.9 0 00-1.3 1.9c-.5 1-1.4 1.8-1.9 2.7s-3.1 3.5-3.9 5.7a9.3 9.3 0 01-2.2 3.1 33.4 33.4 0 00-4 6.5 7.5 7.5 0 01-1.1 1.3 22.9 22.9 0 01-5.4 4.9 3.1 3.1 0 01-1.6.6 18.9 18.9 0 01-7.1-.2c-1-.2-1.7-1.3-2.7-1.5a3.7 3.7 0 01-1.8-1.1 14.2 14.2 0 01-3.2-4.2 14.8 14.8 0 00-2.6-3.9c-1.5-1.5-2.2-3.5-3.5-5.1l-1.7-1.5a14.8 14.8 0 01-2.8-3.9c-.3-.7-.9-.9-1.2-1.3s-1.4-2.7-2.5-3.7l-.2-.3a11.7 11.7 0 00.4-3.2c-.1-.3.5-.6.9-.2s1 .7 1.4 1.1a33.2 33.2 0 004.2 3.2 21.6 21.6 0 013.3 2.7 9.4 9.4 0 002.3 1.6l1.4.9c1.1 1.1 1.9 1.1 3.1.1a17.4 17.4 0 002.8-3.2zm-60.4-56.7a1.2 1.2 0 011-.9 44 44 0 01-.4 8.1c-.7.3-.8-.4-1-.6a9.5 9.5 0 00-2.4-2.1c-.6-.4-.5-.8-.1-1a7.6 7.6 0 002.9-3.5zm16.2-39.5c-.5 1.3 0 2.7 0 4-.1 3.2-.6 6.3-.4 9.5.1.8-.2 1.1-.9 1.2a11.9 11.9 0 01-5.3.2h-2.1a1.4 1.4 0 00-1.3 1.2c-.2.8.4 1.1.9 1.4s.7.1.9.7a10.7 10.7 0 00-3.1 1.3 2.6 2.6 0 00-1.1 2.7 2.2 2.2 0 002.9 1.9 10 10 0 002.5-1.3 18 18 0 01.2 2.2c0 1.2-.6 1.6-1.7 1.1a2.5 2.5 0 00-1.2-.2 28 28 0 01-5-.3 11.6 11.6 0 00-4.9 0c-.8.2-.9.6-.9 1.3.1 2.2.2 4.3.2 6.5a2.6 2.6 0 001.6 2.8.5.5 0 01.3.6c-.6 2-1.3 3.9-3.6 4.5a8.3 8.3 0 01-7.3-1.2l-.6-.6a40.8 40.8 0 00-2.5-3.3 2.4 2.4 0 01-.5-2.7 25.2 25.2 0 00.7-4.9 71.7 71.7 0 011.1-8.1 61.9 61.9 0 001.3-6.2 26 26 0 01.5-3.9 15.2 15.2 0 011.8-4.6c.4-.6.8-1.1 1.6-1s1 .7 1.2 1.3a9 9 0 01.4 4c-.1 1.7-.2 3.5-.2 5.3s0 1.1 1.1 1a31.2 31.2 0 014.4-.5c3.8-.4 3.4-.2 3.1-3.6-.2-1.7-.6-3.5 0-5.2s-.2-1.5.3-2.2 2.4-3.6 4.2-4.7a8.6 8.6 0 012.7-.9 18.8 18.8 0 015.8-.1l2.3.2c.4 0 .7.2.6.6zm-35.5 8.5a36.9 36.9 0 00.1-4.7 13.3 13.3 0 012.6-7.4 42.2 42.2 0 013.8-4.6 1 1 0 01.6-.5c4.9-1.9 9.6-4.2 15-3.6a9.5 9.5 0 014 1 17.3 17.3 0 002.4 1 10.7 10.7 0 015.4 4 4.6 4.6 0 01.9 2.7c-.8-.1-1.5.2-2.2-.3h-.5a17.7 17.7 0 01-6.5-.2c-2.1-.3-2.8.9-4 2.1s-2.6 4.5-4.4 6.4c-.4.4-.2 1-.2 1.5.1 2.3 0 4.6.3 7.1-.9-.4-1.6.2-2.4.3s-1.7-.2-1.4-1.4c.5-2.7-.2-5.4-1-8a3.1 3.1 0 00-5.4-.9 11.3 11.3 0 00-2.9 6.9c-.1 1.6-.4 3.2-.6 4.7a5.7 5.7 0 01-.2 2.6h-.4c-1.9-2.6-3.3-5.3-3-8.7zm1.2 29.4c.3-.1.5.3.7.5l2.3 3.3a8.2 8.2 0 003.8 2.5c.9.3 1 .3.4 1.2a.4.4 0 00-.1.3 10.3 10.3 0 00-2.4 3.1c-.2.3-.4.6-.8.6a.7.7 0 01-.5-.8 34.1 34.1 0 00-2.4-6.3 4.5 4.5 0 01-.7-3.4h-.2c-.2-.4-.3-.8-.1-1zm-.2-1.4v.2h-.1V73zM12.1 111.2zm62.6-12.9c-1.8 1.8-4 3.4-5.7 5.3l-.4.3c-1 2.4-2.9 4.2-4 6.6s-1.5 3.5-2.4 5.3a3.4 3.4 0 00-.3 1.7c.1 1.1-.5 1.9-.8 2.9a6.3 6.3 0 01-2 2.6c-2.5 2-4.8 4.3-7.3 6.3a43.4 43.4 0 01-5.4 4.2 3.9 3.9 0 01-3 .4c-2.1-.5-4.3-.5-6.5-.9a4.9 4.9 0 01-3.1-1.6c-1.2-1.1-2.3-2.4-3.5-3.6s-2.4-2.6-3.7-3.8-1.9-2.5-3.2-3.5-1.5-1.4-2.4-2a12.7 12.7 0 01-2.5-2.1c-2-2-4.1-3.9-6.2-5.8a14.3 14.3 0 00-6-3.4c-1.2-.4-2.1-1.4-3.2-2.1a4.4 4.4 0 013 .3 17.2 17.2 0 014.1 1.9c2.1 1.7 4.8 2.1 6.9 3.6s1.9 1.5 3 2.2a3.9 3.9 0 001.1.6c.7 0 1.4.1 1.8-.6s0-1-.4-1.5-.2-.4-.4-.5c-2.3-1.9-3.9-4.5-5.7-6.8s-2.1-1.7-2.8-2.9a53.4 53.4 0 00-5-6.5c-1.3-1.6-1.3-2.1.1-3.7 1.7.7 2.7 2.3 3.9 3.5l2.4 2.1 6 6.2a8.5 8.5 0 002.8 2.2c.6.3 1 1.2 1.5 1.7a2.6 2.6 0 002.5.6c.5-.3 1.1-1.4.7-1.8a14.2 14.2 0 01-1.4-2.3 28 28 0 01-2.5-4.1 13.2 13.2 0 00-1.2-2 16.2 16.2 0 01-1.9-3.7 61.3 61.3 0 00-5.7-9.5l-1-1.7a1.7 1.7 0 01.4-2.1c.6-.5 1.3-.4 2 .5a4.2 4.2 0 01.9 1.6 13.1 13.1 0 002.1 3.6 10.1 10.1 0 011.8 3.2 1.6 1.6 0 00.4.7c1.1 1.4 1.9 3 2.9 4.4s2.4 3.9 4.4 5.2a4.8 4.8 0 011 1.7c.9 1.5 1.7 1.7 3 .5s1.5-1.8.6-3.5a4.8 4.8 0 01-.7-2c-.1-2.5-.9-4.8-1.1-7.2a10.2 10.2 0 00-.6-2.5l-1.2-4.9c-.3-1.1-.7-2.1-1.1-3.2a1.6 1.6 0 01.4-2.2c1.6 1 1.7 2.8 2.4 4.2s2.3 4.8 3.5 7.1 1.5 3.5 2.5 5 .1 1.3.5 1.9a23.3 23.3 0 004.7 5.2c1.9 1.5 4 2.8 5.4 4.9a1.6 1.6 0 00.8.6 7.2 7.2 0 012.4 2.5 8.7 8.7 0 001.6 1.7 2.1 2.1 0 003.3-.7 3.3 3.3 0 011.6-1.7 5.1 5.1 0 001.9-1.7 7.6 7.6 0 01.9-.9c.9-.7 2-.9 2.3-2.2s.3-.3.5-.4a22.1 22.1 0 013.4-1.8c1.5-.5 2.6-1.8 4.1-2.4s1.6-1.2 2.5-1.7l.6.8c.7.9.6.9-.3 1.7zM94.3 184h.1c.1-.2.1-.1-.1 0zm.6 28.6c-.2.1-.3 0-.3-.2s-.1-.3.2-.2l.3.2zm.7 1zm7.4 5.7c-.3.1-.4-.3-.4-.6-.4 0-.4-.3-.4-.6s-.3-.2-.3-.4l-.2-.2h.1c.1 0 .2.1.1.3.3-.1.4.1.4.3.2 0 .3.2.4.3l.2.4c0 .1.5.4.1.5zm11.2 15.1v-.3h.1c0 .1.1.2.1.3zm.4.7zm3.7-30.2l-.2-.2c.1-.1.2-.2.3-.1l.2.2zm80.3 108.4v-.4c.1.1.2.1.2.2a.3.3 0 01-.3.3v.2c-.3-.2 0-.2.1-.3zm-1.8 14.9c.1 0 .3-.1.4.1v.2h-.3c-.3-.1-.3-.2-.1-.3zm-.1.7s.2.1.2.2v.3c-.1-.1-.2-.1-.2-.2s-.1-.2 0-.3zm-2.5 10.1h.1c0 .1-.1 0-.2 0h.1zm-.9-6a.1.1 0 01.1.1h-.1zm-2-6.5c0-.1.1-.1.1 0v.1h-.1s-.1-.1 0-.1zm-1.5 5.7a.4.4 0 01.1-.3c.1-.2.2-.7.4-.6s.3.7-.1 1 0 .2-.1.2-.2.5-.5.3-.1-.5.2-.6zm-2.7-2.7c.2.1.3.2.2.4s-.1.4-.4.3-.1-.2-.1-.3.1-.4.3-.4zm-6.2-25.1c0 .1.1.2.1.3h-.1a.4.4 0 01-.1-.3zm-.6-.7h.2a.3.3 0 01-.1.2h-.2c-.1-.1-.1-.2.1-.2zm-19.2-31.3zm-6.1 13.7v.2c-.1-.1-.1-.1-.1-.2zm-1.2-6.8a.9.9 0 01.6.9c-.6 0-.6-.4-.6-.8a1.2 1.2 0 01-.7-1.4 1.5 1.5 0 01.7 1.3zm-1.4-2.2h.2c.3.2.2.4.2.6.3-.1.3.1.3.3-.3 0-.3-.1-.3-.3-.3-.1-.4-.3-.4-.6zm-.5-1h.1c.1 0 .1.1-.1.2a.1.1 0 00-.1-.1zm-1.7 1.6c.1 0 .2.2.2.3a.6.6 0 01-.1.4h-.2a.5.5 0 01.1-.7zm-1.8.7h.2c0 .1 0 .1-.1.1h-.1zm-8.6-35.4zm-15.2-28.3zm-1.4 1.9c-.4-.1-.6-.5-.3-.7s.6.1.5.5 0 .3-.2.2zm.4 44.4zm.2-47.7h-.1v.2l.2.2h-.2zm.2 48.5zm.7-42.3c-.3.1-.3-.2-.3-.4s.1-.2.1-.4c-.2.1-.3 0-.3-.1v-.2a.3.3 0 01.3.3l.3.3c.1.2.2.4-.1.5zm.6 3.5zm11.3-14.1a3.6 3.6 0 01-1.5 1 5.6 5.6 0 00-2.5 1.7c-1 .9-1.7.9-2.4-.1s-3.3-4.6-4.7-7a8.6 8.6 0 01-.6-2.3.3.3 0 01.3-.3c.2-.1.3 0 .4.1a22.7 22.7 0 012.9 4 10.5 10.5 0 011.5 3.2c.1.9 2.3 1.3 2.9.5s1.7-.7 1.2-1.9.1-.3.2-.4 2-1.6 3-2.3 1.5-.5 2.8.9c-1.1 1.1-2.5 1.7-3.5 2.9zm11.9 19.1h-.3a.5.5 0 01-.4-.6c0-.2.2-.2.3-.1s.5.4.4.7zm3.1.4a.4.4 0 01-.5-.2c-.5-.2-.7-.6-1-1h-.1c-.2-.1-.3-.2-.2-.5h.2c.2.2.1.4 0 .6h.1c.8-.3 1 .5 1.3.9.2 0 .4 0 .2.2zm.4-27c-.2.1-.2-.1-.2-.2s-.4-.1-.3-.3c-.1-.3-.5-.5-.2-.7s.4.3.5.6.3.4.2.6zm15.1 44.2zm.3-4.3v-.4h-.4c.2-.2.2 0 .2.1h.1c.1.1.2.1.2.3a.1.1 0 01-.1 0zm16.7 33a.8.8 0 01-.5-.5c0-.1.2-.2.2-.1s.5.3.6.6v.3c-.3.1-.3-.1-.3-.3zm.7.8h-.3c-.2-.1-.1-.4-.1-.6.4.1.5.3.4.6zm5.3 9.5h-.3c-.2 0-.3-.2-.2-.4s.2-.1.3.1c.1 0 .3.1.2.3zm.8 1.1a.4.4 0 01-.4-.4c0-.1.2-.2.2-.2l.5.5zm.8.9zm6.5-3.5h.3c0 .1-.1.2-.1.3h-.2c-.1-.1-.1-.3 0-.3zm-5.2-22.6l-.2-.4c-.2 0-.3-.1-.1-.2s.4 0 .5.3c0 .1 0 .2-.2.3zm3.4 4.6c-.3.2-.5.1-.5-.3s-.1-.2-.2-.3a2.1 2.1 0 01-.9-1.3 1.3 1.3 0 01-.6-1 .4.4 0 01-.3-.6h.1c.3.2.3.4.2.7a1.4 1.4 0 011.1 1c.6.2.7.8.9 1.3v.3c.3 0 .3.2.2.2zm3.1 29.7a.3.3 0 01-.3-.3c-.2 0-.3-.1-.2-.3l-.5-.6c-.3-.2-.7-.3-.9-.8-.1-.3.1-.3.3-.2s.8.3.7.9c.6-.1.7.2.6.7.1 0 .2.1.1.2s.3.1.3.3zm0-10.1c-.2 0-.2-.2 0-.3a.5.5 0 01.5.3c.2.1.5.5.2.6s-.6-.2-.7-.6zm.8 11.1h-.3c.1-.2.2-.2.4-.2s.1.2.1.2-.1.1-.2 0zm.5.7v-.2a.1.1 0 01.1-.1v.2a.1.1 0 00-.1.1zm0-10.1c-.2-.1-.4-.2-.4-.4a1 1 0 01.1-.3c.3 0 .5.1.5.4zm1.3 1.4c-.2-.1-.2-.2-.1-.4h-.1c-.3.1-.3-.1-.3-.3l-.2-.2h.1c.2.1.2.2.1.3.3-.1.3.1.3.3h.1l.3.2zm3.1 12.7zm1 .9c0 .1-.1.1-.2 0h.2zm.9 1.1h.1c.1-.1.1 0-.1 0zm2.9-1a.3.3 0 01-.3-.3c0-.2.1-.3.2-.3a.5.5 0 01.4.5.2.2 0 01-.3.1zm24.1 22.6c-.4 0-.4-.3-.4-.6s-.1-.6.3-.6.4.3.5.5a.7.7 0 01-.4.7zm-.1-4.3c-.4.6-.5 1.3-1.3 1.9a2.5 2.5 0 01.9-2.3c.2-.6.8-1 1.2-1.8.4 1.2-.6 1.5-.8 2.2zm14-26.4c-.1-.1-.2-.1-.2-.2s.1-.1.1-.2h.2zm-.1-1.3a.1.1 0 00-.1-.1h.2a.1.1 0 00.1.1zm5.4 3.3c-.1 0-.1-.2-.1-.3s.1-.1.1-.2l.2.2c0 .2 0 .3-.2.3zM151.7 201v-.1zM283.8 240.6h.1-.1z" fill="#070606"/><path d="M380.4 233.1a9.2 9.2 0 00-2.7-1.6 10 10 0 01-3.5-1.9 22 22 0 00-2.5-1.7c-.7-.4-1.5-.9-1.4-1.9s-.3-.6-.5-.8-2-3-2.3-4.8-.5-6.5-1-9.7c.8-.5-.4-.8-.1-1.4s.5-2 .6-3a23.4 23.4 0 011.9-8.2 2.7 2.7 0 00.1-2 2 2 0 00-1.3-1.6c-.8-.3-1.1.6-1.4 1.2s-2 3.2-2.9 4.9-4.1 4.8-6.3 7a1.4 1.4 0 01-1.4.2 17.4 17.4 0 00-6.4-.9 8.5 8.5 0 00-6.4 2.7c-.6-.4-1-.9-1.5-1.3s-1.8-2-2.8-2.9-3.4-2.5-4.9-4a38.3 38.3 0 00-2.9-2.8 1.9 1.9 0 00-2.9.1c-.8.8-.3 1.6 0 2.3 1.4 2.8 2.1 5.9 3.7 8.6a4.8 4.8 0 01.4 1.8 7.4 7.4 0 000 2.1c.7 3-.2 5.8-1.1 8.5l-.4.6c-.8 1.4-2.3 2.2-3.5 3.2a2.2 2.2 0 01-1.5.6c-.5 0-.9.4-1.4.4s-1.5 1.2-1.8 2a.9.9 0 00.5 1.4 2.4 2.4 0 002 .5c2.6-.8 4.8.2 6.8 1.7l.9.7a4.8 4.8 0 012.6 2.8 10.7 10.7 0 01.5 3.9 25.8 25.8 0 01-.8 2.6 2.8 2.8 0 01-2.9 2.1c.4-.9 0-1.4-.8-2l-3-2.1a39.3 39.3 0 00-4.2-2.9 39.8 39.8 0 01-5-2.7 8.5 8.5 0 00-2.2-.9c-3.2-.7-6.1-2.2-9.3-3s-6.3-1.1-9.5-.1a25.3 25.3 0 01-3.6 1.2c-1.9.2-3 1.6-4.4 2.5s-2 1.9-3.2 2.6a2.3 2.3 0 00-1.1 1.1c-.3 1.1-1.2 1.6-1.7 2.4a.4.4 0 00-.1.3c-.6 1.4-1.8 2.3-2.5 3.6a23.6 23.6 0 01-3.6 5.3c-1 1.3-2.2 2.6-2.4 4.3a12.8 12.8 0 01-.9 3.5 6.8 6.8 0 00-.7 2.7 30.8 30.8 0 01-.8 5.3c-.6 3.1-.7 6.3-1.1 9.5-.8-1.4-2-2.5-2.8-3.9a62.6 62.6 0 01-3.4-5.5 53.8 53.8 0 01-2.4-5.5 37.6 37.6 0 01-3-10.9c-.2-2.2-.9-4.3-.7-6.4a.7.7 0 00-.1-.5c-.9-2-.7-4.2-.8-6.2s-.6-6.8-.7-10.1c0-1.2-.4-2.4-.3-3.5.1-3.1-.2-6.2-.1-9.3v-2.7a71.5 71.5 0 01.7-11.3l.3-1.1a9.9 9.9 0 00.3-2.4c.1-1.7-.1-3.3 0-4.9a40.9 40.9 0 00.3-6 24.5 24.5 0 00-1.1-7.1 2.1 2.1 0 00-1.6-1.9 4.8 4.8 0 00-4.4.9 12.2 12.2 0 00-3.6 6.8 18.6 18.6 0 01-.9 4.7 3.9 3.9 0 00-.5 1.4 63.2 63.2 0 01-1.1 7.6c-.4 2.6-.5 5.1-.7 7.6a57.1 57.1 0 00.3 8.3 28.4 28.4 0 01.2 5.8c-.2 2.5.4 4.9.6 7.3.1.5.5.9.5 1.5a39.7 39.7 0 00.7 4.8c.2 1.3 1 2.4.8 3.7a2.4 2.4 0 00.3 1.9 5.2 5.2 0 01.7 2.1c.7 2.2 1.3 4.5 2 6.8a46.5 46.5 0 002 5.2 8.2 8.2 0 011 2.4 19.4 19.4 0 002.6 6.1 2.1 2.1 0 01.4 1c.1 1.4 1.1 2.3 1.7 3.2s3 4.1 4.3 6.3a50.6 50.6 0 005.3 6.9c.7.8 1.3 1.8 2.2 2.2s.9.7.9 1.3c0 3 1 5.8.9 8.7a13.6 13.6 0 001.4 5.5c.8 2 .7 4.3 1.1 6.5a67.1 67.1 0 001.3 7.6 9 9 0 01.7 2.7 21.1 21.1 0 001 5 21.3 21.3 0 011.1 3.3 27.8 27.8 0 002.9 7.9c.9 1.6 1.3 3.5 2.3 5.1 2.8 4.2 5 8.8 7.6 13.2a2.8 2.8 0 01.6 1.8 1.7 1.7 0 001.6 2c.5 0 .9.3 1.3.3s1.7.6 2.6.4c2.7-.6 5.5-.8 8.1-1.7a5.2 5.2 0 003.6-3.2c.6-1.4 0-3.1.5-4.6l-.3-.6c-1.9-3.3-4.8-4.6-8.6-4.1-.7.1-1.1 0-1.5-.9s-1.4-4.5-2.2-6.8a11.6 11.6 0 01-.9-4.1c0-1.3-.8-2.5-.8-3.8s-.6-3.6-.4-5.5c0-.3-.1-.6-.1-1-.7-3-.4-6.1-.6-9.1a5.2 5.2 0 01.2-1.8c1.2-2.7.9-5.7 1.6-8.5s1-6.1 2-9a17.6 17.6 0 012.2-4.8c1.5-2 2.8-4.1 4.8-5.6a8 8 0 014.5-1.7c2.7-.1 4.6 1.5 6.3 3a39 39 0 015.1 5.6 17.5 17.5 0 012.5 5.6c.6 2.6.9 5.2 1.3 7.8s1 4.3 1.2 6.5.5 5.6.8 8.5-.1 5.5.1 8.2 0 6.5.4 9.7c.2 1.2-.2 2.4.2 3.5s.2 3.3.1 5a1.9 1.9 0 00-.2.8c.4 1.9-.1 4 .8 5.9s.8 1.5 1.5 1.6a22.8 22.8 0 006.4.2 11.5 11.5 0 003.6-1.1c1.7-.7 3.5-1.3 4.2-3.3l.2-.3c.9-.9 1-2.2 1.2-3.4a4.4 4.4 0 00-1.1-3.5c-1.2-1.4-2.3-2.7-4.3-2.9a1.2 1.2 0 01-1-1 3.6 3.6 0 01-.3-2.1 8.3 8.3 0 000-3.5 8.1 8.1 0 010-2.2c.4-1.9.1-3.9.4-5.9s.1-3.6.5-5.5a10.9 10.9 0 00.4-2.6c0-2.4.4-4.7.4-7.1s.8-3.2 1.2-4.9c-.2 0-.3-.2-.3-.4q0-.2.3-.3c.4-1.3.2-2.6.7-3.8s1-1.1.1-1.8a.5.5 0 01.1-.3c.5-1.3.7-2.8 1.1-4.1s1-4.6 1.7-6.8 1.6-5.5 2.4-8.3a3.1 3.1 0 00-.1-1.9h-.3c-.1-.1-.2-.1-.2-.2s-.3-.8.1-.9.4.4.5.7l.3.4c.8-.6.6-1.5.9-2.3s.8-3.2 1.6-4.7 0-1.5.5-2.2a25.3 25.3 0 001.2-2.3c.6-1.5 1.4-2.8 2-4.1a27.8 27.8 0 013.5-5.4c-.1-.1 0-.2.1-.2s.2-.5.2-.8 1.4-.8 1.9-1.4a44.6 44.6 0 014.9-5.7c1.2-1.1 2.6-1.8 3.8-2.8s.7-1.1 1.1-1.2c2.1-.8 4.1-1.8 6.4-1.1s2.2.2 3.3.5 1.6-.5 1.5-.9a2.7 2.7 0 00-1-2.1zM256.1 235zm34.1 98.5c-.2 0-.2-.2-.1-.3h.3a.4.4 0 00.1.3zm1.6-75.4c-.1 0-.1-.1-.1-.2h.4zm9.5 18.2a.3.3 0 01-.3.3c0 .2-.1.2-.2.2h.2a.3.3 0 01.3-.3c0-.2.1-.3.2-.3a.1.1 0 01.1.1c0-.1-.1 0-.3 0zm7.6-4.8zm14.1-15.9zm9.1 85h-.2c-.1-.1-.1-.2.1-.2h.2a.3.3 0 01-.1.2zm9.2-79.6c-.1 0-.1-.2-.2-.3h.3c.1.1.2.2.1.3s-.1.1-.2 0zm1.9 26.3zm.6-1.6h-.1l.2-.2v.2zm4.2-17.9zm6.6-48.4h-.2v-.2l.3-.2a.2.2 0 01-.1.4zM234.3 195.6a23.1 23.1 0 012.3-6.7c.2-.3.2-.8.6-.8s1.2-1.4 1.4-2.3a7.1 7.1 0 01.6-2.4c.6-.8-.4-2.5-1.2-2.3s-2.7.8-3.4 2.2a48.8 48.8 0 00-2.3 6.4 26.2 26.2 0 00-1.1 4 57.7 57.7 0 01-.8 5.8c-.3 2.3-.4 4.7-.7 6.9s.7 4.7 0 7 .1 1.9.3 2.9a57.7 57.7 0 011.6 7.2 3.3 3.3 0 002.7 2.6c1.3 0 2-.8 1.8-2.2a3.4 3.4 0 00-.5-1.4 7.7 7.7 0 01-1.6-3.1 45 45 0 01-1.5-8 48.6 48.6 0 01.5-10.8c.3-1.7 1-3.3 1.3-5zM175.3 351.1c-.6 0-.9-.1-1-.8s-.4-.7-.8-.9a5.9 5.9 0 00-4.7-.3c-2.7.8-5.3.1-8 .2 1.9-.2 3.7-1.1 5.6-.9a3.9 3.9 0 002.3-.5c.2-.1.5-.2.5-.6a.9.9 0 00-.6-.7 8 8 0 00-3.1-.4 26.7 26.7 0 01-6.3 1 30.6 30.6 0 00-8.5 1.2 1.2 1.2 0 00-1 1.4 1.7 1.7 0 001.6 1.6h5.4l6.2.3c.4 0 .9-.2 1.1.1s2.4.9 3.6.9 1.1.2 1.2.6 1 1 1.7 1a6.7 6.7 0 013.1.5 2.6 2.6 0 002.9-.9c.9-1.2.3-2.7-1.2-2.8zM210 339.6a3.6 3.6 0 013.1 1.1 1.1 1.1 0 00.8.2c1.3.4 2.7-.1 4.2.2-.2.6-.5 1.1.2 1.4a3.1 3.1 0 001.3.6 15.5 15.5 0 014 1.7 4.5 4.5 0 003.8.6 15 15 0 013.2-.9 38.5 38.5 0 004.8-.1c1-.2 1.7-.7 1.6-1.3s-.9-1-1.8-.7-3.7-.4-5.6-.3a18.7 18.7 0 01-5.3-.4c-1.3-.3-1.3-.2-.7-1.4s.2-.3.2-.5a2.9 2.9 0 01.6-2.5.6.6 0 00-.1-.7c-.6-1-1.1-1.2-2.4-.9a14.1 14.1 0 01-2.2.6 22.3 22.3 0 00-3.6.5c-2.2.2-4.5.9-6.5-.9-.5-.4-1.2-.2-1.9 0a1 1 0 00-.5.6 2.1 2.1 0 001.4 2.7zM318.8 351.9c-2.2.4-4.2 1.2-6.3 1.7a21.1 21.1 0 00-3.6.9c-3.2 1.2-6.6 1.9-9.8 3.1l-7.1 2.5a34.4 34.4 0 01-6.9 1.6 9.1 9.1 0 01-3.3-.1c-.7-.1-1.5 0-1.6.8s.8.8 1.3 1.1h4.3c3.2-.4 6.2-1.5 9.3-2.2s5.5-2.3 8.5-2.3l.3-.2a36.1 36.1 0 014.6-1.7c2.3-.6 4.5-1 6.7-1.8l1.5-.4a6.3 6.3 0 004.9-3.1 6.6 6.6 0 00-2.8.1zM226.3 191.4a1.5 1.5 0 00-1.9-.5c-.6.2-1.5-.1-1.5 1.1a5.5 5.5 0 01-1 2.5 3.4 3.4 0 00-.8 1.7c-.3 2.6-1.9 5.1-1.3 8s-.1 3.2.5 4.8a11.8 11.8 0 011 4.5c-.1 1.2.9 1.3 1.4 1.8s1.2.1 1.7-.3.5-1.4.2-2.2-.5-.6.1-1.1.5-1-.1-1.4-1.7-2.3-1.9-3.7a14.4 14.4 0 013.4-12.4 2.6 2.6 0 00.2-2.8zM238.6 379.3a11.9 11.9 0 01-4.3 1.6l-8 2.5a23.2 23.2 0 01-3.6 1.6c-4.1 1.2-8 2.9-12 4.2a4.1 4.1 0 00-2.5 1.8 18.4 18.4 0 005.6-1.5c2-.8 4.1-1.2 6.1-2s3.5-.9 5.1-1.6 4.7-1.5 7.1-2.2l7.5-1.7a1.8 1.8 0 001-2.2 1.2 1.2 0 00-2-.5zM283.1 366.8a4.8 4.8 0 00-1.8-.5c-.3-.1-.6.2-1 .3a6.4 6.4 0 01-2.7.7 38.2 38.2 0 00-5.6 1.4c-1.9.5-3.7 1.5-5.6 2.2s-6.6 2.5-10.2 2.6c-.4 0-.6.3-.9.4s-.6.5-.4.8.6.8 1 .6 2-.3 3-.5c3.9-1.1 7.7-2.4 11.5-3.4a28.5 28.5 0 016.3-1.4c2-.1 4-.7 6-.7a1.5 1.5 0 001.2-1.2c.2-.4-.2-1.1-.8-1.3zM155.4 167.1c-2.1 1.8-4.6 2.6-7.1 3.6s-5.2 1.7-7.9 2.5a15.7 15.7 0 00-2.3.9c-.7.3-1.4.8-1.1 1.6s1 .6 1.6.6h.2l1.6-.2a55 55 0 005.8-1.6 24.4 24.4 0 006.7-2.8 8.9 8.9 0 003.4-3.8c.1-.3.3-.6 0-.9s-.6-.1-.9.1z" fill="#070606"/><path d="M309.2 217.6a35.4 35.4 0 005.3 2.3 31.6 31.6 0 015.4 2c1.6.8 2.8.1 2.8-1.6s-.4-1.5-1.3-1.5c-2.6.1-5.1-.8-7.6-1.5-1-.3-2.2-.5-2.7-1.7s-1-.8-1.6-.8-1 .5-1.1 1.1a1.5 1.5 0 00.8 1.7zM391.9 228.1l4.6-1c.9-.2 1.5-1 1.4-1.5a1.7 1.7 0 00-1.8-1.2 11.6 11.6 0 00-1.8.4c-3.2.9-6.2 2.6-9.6 2.7-1 0-1.4 1.2-.9 2.1a2.1 2.1 0 002.6.6c1.9-.5 3.6-1.6 5.5-2.1zM395.2 243.9a26.1 26.1 0 00-4.3-3.1 23.8 23.8 0 00-3-1.8 1.5 1.5 0 00-2.1.9 1.4 1.4 0 001.1 1.7l1.2.5c2.8 1.3 5 3.4 7.4 5.3a2.6 2.6 0 002.5.5c-.1-1.9-1.5-3-2.8-4zM390.2 231.8a5.2 5.2 0 00-1.8-.3c-.4.1-1-.2-1.4.4s-.8 1.8.7 2.2 5.6 1.4 8.4 2a.9.9 0 001.1-.5 1 1 0 00-.3-1.2 5.2 5.2 0 00-2.7-1.5 26.2 26.2 0 01-4-1.1zM308 223.8h.4c1.6.3 3.3.4 4.8 1.6a3.5 3.5 0 001.8.6.9.9 0 001.2-.6 2 2 0 00-1.1-2.3c-1.4-.7-3-.8-4.5-1.4l-1.5-.3h-.9c-.8.1-1.6.7-1.6 1.2s.7 1.1 1.4 1.2zM250 377.7a1.1 1.1 0 00-1.3.9c0 .8.7.9 1.1 1s1-.4 1.1-1-.3-.9-.9-.9zM226.9 218.4h.4c-.3-.7-.4-1.3-1.1-1.5h-.1c-.2.8.4 1 .8 1.5zM56.4 104.5l-.3-.4c-.2.5-.1.7.3.4zM254.5 293.5a.5.5 0 00-.5-.4c-.1.4.3.3.5.4zM179.2 398.1c-.3.5.1.8.1 1.3l.3.2a1.2 1.2 0 000-1.5.3.3 0 00-.4 0zM19.5 96.7l-.5.4c.6.2.5-.1.5-.4zM342.1 297.3v.2c.2-.1.5-.3.5-.5s-.3-.2-.5-.1zM359.5 247.7c-.1.1-.1.2 0 .2h.1a.1.1 0 00-.1-.2zM358.4 248.9h.4c0-.2-.3-.2-.5-.2zM190.3 313.7h-.5c.2.1.3.2.5 0zM283.5 240.4l.3.2v-.4zM283.9 240.6zM345.3 104.3l.2-.2-.3-.2c-.1 0-.1.2-.1.3zM171.4 269.2c.1-.1.2-.1.2-.2s-.1-.2-.1-.3-.2.2-.2.3zM30.3 94.3a.7.7 0 01.2-.6h-.4c.2.2.2.4.2.6zM348 269.6c0 .1.1.1.1.2h.4l-.4-.2zM172.2 270.4h.2c.1-.1.1-.1-.1-.2zM226 216.3c.2-.1.1-.2-.1-.3h-.4c.1.2.3.4.5.3zM225.9 216c0-.3-.2-.4-.5-.3s-.1.3.1.3zM172.6 269.4zM284.8 238.8h-.1c-.1 0-.1 0-.1.1h.2zM199 334.6v.2h-.1c.2-.1.3-.2.3-.4v.2zM198.6 335.2a.3.3 0 00.3-.3zM240.6 178.2zM121.8 410.8c.1.1.1.1.1.2a.1.1 0 00.1-.1v-.2zM233.6 319.4l.4.4c.1-.4-.1-.5-.4-.4zM137.9 226.5h.1l.6.9c-.2-.4-.5-.7-.6-1zM194.8 263.2h.5c-.2-.2-.3-.2-.5 0zM153.8 279.4v-.1.1zM148.4 75.3l.4-.5c-.4 0-.5.1-.4.5zM137.6 226.4v-.7c-.2.3-.2.5 0 .7zM198.6 293.5a.1.1 0 00-.1.1h.1zM249.5 106.6c.1-.4-.1-.6-.5-.5l.5.5zM151.7 200.9zM194.2 262.2h-.1.1zM151.4 228.1h-.3c.1.2.2.2.3 0zM102.6 218.7v-.4c-.2.1-.2.2 0 .4zM190.2 332.3l-.3-.4c.1.1.1.4.3.4zM190.1 332.5c-.1-.1-.1-.3-.3-.3s.1.3.3.3zM189.9 284.3a.4.4 0 00-.1.3.4.4 0 00.1-.3zM201.6 287.1zM197.6 292.8l.3-.2zM199.2 294.2h-.2c0 .1.1.1.2 0zM199.3 294.5zM196.2 264.5h-.5c.2.2.3.2.5 0zM195.9 264.8h.4a.3.3 0 00-.4 0zM167.3 240.9h-.1.1zM101.9 217.7zM123.2 216.6l.2-.2c-.2-.1-.2.1-.2.2zM198.8 334.6zM198.8 334.6zM123.8 213.3zM151.7 201z" fill="#070606"/><path d="M348.2 269.5c-.3 0-.5.1-.4.4a.4.4 0 01.4-.4zM301 276.6zM342.1 296.8l-.3.3c.2.1.2-.1.3-.3zM175.5 37.7a55.8 55.8 0 00-5.2 3.2c1.1 1.9 1.2 1.9 3 1.2l.4-.3c.5-.3.8-.2 1 .4s.3 1.1 1 1.2a2.8 2.8 0 002.3-1.5 25 25 0 00.7-2.6 1 1 0 00-.3-1 2.5 2.5 0 00-2.9-.6z" fill="#070606"/></svg>