<svg width="100" height="100" viewBox="0 0 100 100" fill="none" xmlns="http://www.w3.org/2000/svg">
<g id="Location Marker">
<g id="World [component:svg]">
<ellipse id="Ellipse 20" cx="50.5" cy="33.5" rx="16.5" ry="15.5" fill="#F2F2F2"/>
<path id="Vector" d="M49.5518 0C28.3059 0 11 17.3059 11 38.5518C11 44.5057 13.468 50.8437 16.8581 57.406C20.2481 63.9691 24.6778 70.7027 29.0862 76.8024C37.903 89.001 46.6905 98.7287 46.6905 98.7287C47.052 99.129 47.4934 99.4489 47.9863 99.6679C48.4792 99.8869 49.0125 100 49.5518 100C50.0911 100 50.6244 99.8869 51.1173 99.6679C51.6101 99.4489 52.0516 99.129 52.413 98.7287C52.413 98.7287 61.2006 89.001 70.0174 76.8024C74.4258 70.7027 78.8555 63.9691 82.2455 57.406C85.6355 50.8437 88.1036 44.5057 88.1036 38.5518C88.1036 17.3059 70.7976 0 49.5518 0ZM49.5518 7.71036C66.6307 7.71036 80.3932 21.4726 80.3932 38.5518C80.3932 42.1795 78.5242 47.8353 75.4086 53.8671C72.293 59.8981 68.0486 66.3831 63.7828 72.2846C56.6812 82.1107 51.7379 87.517 49.5518 89.9943C47.3657 87.517 42.4224 82.1107 35.3208 72.2846C31.055 66.3831 26.8106 59.8981 23.695 53.8671C20.5794 47.8353 18.7104 42.1795 18.7104 38.5518C18.7104 21.4726 32.4729 7.71036 49.5518 7.71036ZM49.5518 19.2759C41.0808 19.2759 34.1311 26.226 34.1311 34.6966C34.1311 43.168 41.0808 50.1173 49.5518 50.1173C58.0227 50.1173 64.9725 43.168 64.9725 34.6966C64.9725 26.226 58.0227 19.2759 49.5518 19.2759ZM49.5518 26.9863C53.8558 26.9863 57.2621 30.3927 57.2621 34.6966C57.2621 39.0005 53.8558 42.407 49.5518 42.407C45.2478 42.407 41.8414 39.0005 41.8414 34.6966C41.8414 30.3927 45.2478 26.9863 49.5518 26.9863Z" fill="#34C397"/>
<path id="Vector_2" d="M49.5519 7.71033C32.473 7.71033 18.7105 21.4725 18.7105 38.5518C18.7105 42.1795 20.5795 47.8352 23.6951 53.8671C26.8107 59.8981 31.0551 66.3831 35.3209 72.2846C42.4225 82.1106 47.3658 87.5169 49.5519 89.9943C51.738 87.5169 56.6813 82.1106 63.7829 72.2846C68.0487 66.3831 72.2931 59.8981 75.4087 53.8671C78.5243 47.8352 80.3933 42.1795 80.3933 38.5518C80.3933 21.4725 66.6308 7.71033 49.5519 7.71033ZM49.5519 19.2759C58.0229 19.2759 64.9726 26.226 64.9726 34.6966C64.9726 43.1679 58.0229 50.1173 49.5519 50.1173C41.0809 50.1173 34.1312 43.1679 34.1312 34.6966C34.1312 26.226 41.0809 19.2759 49.5519 19.2759Z" fill="#2E162C"/>
</g>
</g>
</svg>
