<svg data-name="Layer 1" xmlns="http://www.w3.org/2000/svg" width="400" height="400"><path d="M41 284.5c2-1.2 4.1-2.3 6.2-3.3a67.4 67.4 0 01-2-10.9c-1.9-17.6 1.9-35.3 6.8-52.2.6-2.2 1.6-6.9 4.6-6.9h.3c2.1.3 3 5.4 3.4 7 3.1 12.3 10.6 25 20.5 33.1 6.1 4.9 15.1 5 22.4 2.9s14.5-7.7 16.7-16.6c4.2-17.4-2.1-34.2-6.3-50.8-3.2-12.6-5.6-25.5-4.3-38.5.3-3.1.7-16.7 5.2-16.4 2.7.2 4.5 5.6 5.7 7.5a53.5 53.5 0 007.5 9 44.4 44.4 0 0020 11.6 41.5 41.5 0 0029.3-3.9c9.8-5.1 16.5-14.5 22.1-23.7s10.1-20.2 4.7-30.1-15.5-18.5-23.6-27.1c-4-4.2-8.4-8.6-11.1-13.6a31.4 31.4 0 01-3.7-12.3c-.2-2.6-.3-11.4 3.9-11.2 1.2 4.4 1.4 9 3.1 13.3 2.8 7.3 8.4 13.2 14.5 17.7 11.1 8.3 26.1 7.4 39.1 6.8 10.2-.4 21.8 3.1 22.4 15.1.3 5.2-1.4 10.6-3.2 15.5-3.7 9.6-9.5 18-15.1 26.6-4.1 6.3-8.2 12.7-10.7 19.9-5.6 15.2-4.8 32.7 7.1 44.7 14 14.1 38.4 17 54.7 5.1 8.7-6.3 15.1-15.8 19.8-25.3a56.1 56.1 0 005.6-26.4c0-1.8-2.4-13.4 1.7-11.6 5.9 2.6 11.8 8.1 15.6 13.2a31.9 31.9 0 017.1 18.9c.2 8.3-2.5 16-5.7 23.6l4-.4c3.8-.2 6.5.4 8.3 1.5 4.6-12.8 7.4-26.2 2.8-39.2a69.9 69.9 0 00-10.9-16.4c-7.1-7.5-17.9-12-26.9-16.7-3.2-1.7-7.6-3.1-9.4 1.2s-1.6 9.8-1.3 14.6c1.2 18.2-2.3 43.9-21.8 51.5a37.8 37.8 0 01-27.1-.2c-5.8-2.4-9.8-8.1-11.6-14-2.9-9.2-1-18.6 2.8-27.2s10.7-18.6 16-27.9 9.7-20.1 9.8-31.2c0-.4-.1-.8-.1-1.2-.2-9.3-3.6-19.4-12.5-23.8s-18.5-3.3-27.7-2.3c-28 2.9-47-16.6-36.7-44.4.7-1.9-.8-5.6-2.9-6s-5.2 2.1-6.8 3.5c-5.6 4.9-10.1 11.2-14.1 17.4s-8.3 13.9-8.8 22.3c-.7 11.1 7 19 14.7 25.6s15.4 12.1 21 20.4c4.4 6.6 4.3 13.9 1.4 21-2.3 5.3-5.3 11.8-9.4 16-11.7 12.2-34.6 8.7-44.9-3.3-5.2-6.2-7.7-14.2-11-21.4-1.6-3.7-4.9-11.6-9.7-6.9-3.3 3.2-5 8.3-6.7 12.4a87 87 0 00-5.7 19.9c-1.9 11-1.5 22.1-1 33.1a154.9 154.9 0 004.7 31c2.3 9.1 6.2 20 2.3 29.2s-13.6 7.1-20.4 3.7c-16-8.3-19.6-29.5-19.3-45.7 0-3.6.5-7.1.8-10.7.1-2.1-.3-5.4-2.9-5.9s-2.7.8-3.6 1.7c-4.2 4.3-7.2 10.9-9.9 16.2-8.9 17-14.4 35.7-18.1 54.4a109.4 109.4 0 00-2.1 21.4 89.3 89.3 0 003.1 22.6 21.4 21.4 0 017.3-6.5zM367.4 223.4a8.1 8.1 0 00-.5-2.7c-1.1-2.3-4.9-2.2-6.8-1.1s-3.8 5.6-4.1 8.6c-.6 8.3-1.8 16-5.9 23.4-2.2 4-6.1 10.2-11 11.1-2.1 3.6-7.5 6.9-13.9 9.8 7.2 3.6 15.1 1.3 22.5-3.1s.5 13.3-.2 15.1a164.9 164.9 0 01-41.7 60.2c-9 8.1-23.6 15.6-35 18.9-18.5 5.2-31.9 7.5-50.9 10.5-9 1.5-18.2 1.5-27.3 1.1a274.2 274.2 0 01-41.5-4.4c-8.8-1.6-17.9-4.2-25.7-8.2a204.5 204.5 0 01-22.4-13.9l-2.8 1c-5 1.8-10.3 4.5-15.6 5.6 11.3 9 24.7 15 37.8 20.9 9 4.1 18.8 5.4 28.5 7.3s20.2 4.2 30.5 4.6c12 .6 24.9 1.6 36.8.2 16-2 31.2-5.7 46.9-9.4a133.4 133.4 0 0036.2-14.1c10-5.7 18.8-13.6 26.6-22a154.7 154.7 0 0033.4-57.5c0-2.3 1.6-5.5 2.2-7.8s1.3-5.2 1.9-7.8c1.1-5.3 1.9-10.7 2.5-16a140.8 140.8 0 00.5-15.9c-.1-4.8-.8-9.6-1-14.4z" fill="#271c24"/><path d="M326.3 237.8l.6.8-.4-7c0 .2-.1.4-.1.6a55.1 55.1 0 00-.1 5.6z" fill="none"/><path d="M334.2 204.9v.3c.1-.1-.1-.2 0-.3z" fill="#ffd774"/><path fill="#fcb72d" d="M61.1 335.7l-1.8-29 5.9-1.9 1.8 29-5.9 1.9zM123.6 315.9l-13-17-.1.1 1.3 20.6-6 1.9-1.8-29 8.1-2.5 12.7 16.5v-.1l-1.2-20.1 5.9-1.9 1.8 29-7.7 2.5zM173.9 295.5a16.7 16.7 0 01-5.3 3 18.2 18.2 0 01-5.9.8 9.9 9.9 0 01-4.8-1.7 10.3 10.3 0 01-3.3-3.8 17 17 0 01-1.5-5.9 20.9 20.9 0 01.7-6.7 19.3 19.3 0 012.7-5.8 23.4 23.4 0 014.4-4.5 24.2 24.2 0 015.8-2.9l2.4-.5a9.6 9.6 0 012.4 0 6.9 6.9 0 012.4.5 6 6 0 012.1 1.4l-4.3 5.5a3.9 3.9 0 00-2.2-1.1 5.3 5.3 0 00-3 .3 7.3 7.3 0 00-3.1 1.7 8.7 8.7 0 00-2.3 2.7 12.3 12.3 0 00-1.5 3.5 12.9 12.9 0 00-.3 3.9 10 10 0 00.8 3.6 7.6 7.6 0 001.8 2.4 5.8 5.8 0 002.5 1.2 6.7 6.7 0 003.1-.3 8.7 8.7 0 003.1-1.8 9.7 9.7 0 002.2-3.1l5.2 2.5a14.7 14.7 0 01-4.1 5.1zM233 270.7a13.9 13.9 0 01-1.9 4.5 12.9 12.9 0 01-3.4 3.6 15.7 15.7 0 01-4.8 2.5 11.6 11.6 0 01-5 .6 7.1 7.1 0 01-3.7-1.3 8.3 8.3 0 01-2.4-3.1 12.4 12.4 0 01-1-4.5l-1.1-17.8 5.9-1.9 1.1 17.5a4.8 4.8 0 001.8 4 3 3 0 001.8.8 5.7 5.7 0 002.2-.2 6.8 6.8 0 002.2-1.2 6.5 6.5 0 001.5-1.8 6.4 6.4 0 001-2.4 7.4 7.4 0 00.3-2.6l-1.1-17.5 5.9-1.9 1.1 17.8a15.7 15.7 0 01-.4 4.9zM251.7 271.4l-6 1.9-1.4-23.3-7.7 2.4-.3-5.7 21.2-6.7.4 5.7-7.7 2.4 1.5 23.3zM263.2 267.8l-1.8-29 5.9-1.9 1.8 29-5.9 1.9z"/><path d="M170.6 291a8.7 8.7 0 01-3.1 1.8 6.7 6.7 0 01-3.1.3 5.8 5.8 0 01-2.5-1.2 7.6 7.6 0 01-1.8-2.4 10 10 0 01-.8-3.6 12.9 12.9 0 01.3-3.9 12.3 12.3 0 011.5-3.5 8.7 8.7 0 012.3-2.7 7.3 7.3 0 013.1-1.7 5.3 5.3 0 013-.3 3.9 3.9 0 012.2 1.1l4.3-5.5a6 6 0 00-2.1-1.4 6.9 6.9 0 00-2.4-.5 9.6 9.6 0 00-2.4 0l-2.4.5a24.2 24.2 0 00-5.8 2.9 23.4 23.4 0 00-4.4 4.5 19.3 19.3 0 00-2.7 5.8 20.9 20.9 0 00-.7 6.7 17 17 0 001.5 5.9 10.3 10.3 0 003.3 3.8 9.9 9.9 0 004.8 1.7 18.2 18.2 0 005.9-.8 16.7 16.7 0 005.3-3 14.7 14.7 0 004.1-5.1l-5.2-2.5a9.7 9.7 0 01-2.2 3.1zM189.4 261.6l-9.8 32.6 6.6-2 1.8-6.9 10.5-3.3 2.7 5.4 6.6-2.1-13.5-25.3zm.2 17.7l2.7-10 3.8 7.9zM226.4 249.9l1.1 17.5a7.4 7.4 0 01-.3 2.6 6.4 6.4 0 01-1 2.4 6.5 6.5 0 01-1.5 1.8 6.8 6.8 0 01-2.2 1.2 5.7 5.7 0 01-2.2.2 3 3 0 01-1.8-.8 4.8 4.8 0 01-1.8-4l-1.1-17.5-5.9 1.9 1.1 17.8a12.4 12.4 0 001 4.5 8.3 8.3 0 002.4 3.1 7.1 7.1 0 003.7 1.3 11.6 11.6 0 005-.6 15.7 15.7 0 004.8-2.5 12.9 12.9 0 003.4-3.6 13.9 13.9 0 001.9-4.5 15.7 15.7 0 00.4-4.9l-1.1-17.8zM257.5 240l-21.2 6.7.3 5.7 7.7-2.4 1.4 23.3 6-1.9-1.5-23.3 7.7-2.4-.4-5.7zM261.4 238.8l1.8 29 5.9-1.9-1.8-29-5.9 1.9zM297.3 230.9a9.9 9.9 0 00-4.8-1.7 18.2 18.2 0 00-5.9.8 21.9 21.9 0 00-5.7 2.9 20.8 20.8 0 00-4.4 4.5 20.5 20.5 0 00-2.7 5.8 18.4 18.4 0 00-.7 6.7 13.2 13.2 0 001.5 5.9 9.6 9.6 0 008.1 5.4 13.4 13.4 0 005.8-.7 19.3 19.3 0 0010.2-7.4 19.8 19.8 0 003.4-12.4 16.5 16.5 0 00-1.5-6 10.3 10.3 0 00-3.3-3.8zm-1.7 15.6a10 10 0 01-1.5 3.5 10.8 10.8 0 01-5.9 4.6 9 9 0 01-3.5.4 5.5 5.5 0 01-4.6-3.5 9.5 9.5 0 01-.9-3.6 12.9 12.9 0 01.4-3.9 10 10 0 011.5-3.5 11.2 11.2 0 012.5-2.8 10.1 10.1 0 013.4-1.8 8.8 8.8 0 013.5-.4 6.4 6.4 0 012.7 1.1 5.4 5.4 0 011.9 2.5 7.8 7.8 0 01.8 3.5 12.4 12.4 0 01-.3 3.9zM55.8 313.5l-.4-5.6-15.8 5a80.5 80.5 0 009 11.4l-.5-8.3zM59.3 306.7l1.8 29 5.9-1.9-1.8-29-5.9 1.9zM95.2 298.8a9.9 9.9 0 00-4.8-1.7 18.2 18.2 0 00-5.9.8 21.9 21.9 0 00-5.7 2.9 20.8 20.8 0 00-4.4 4.5 19.3 19.3 0 00-2.7 5.8 18.4 18.4 0 00-.7 6.7 13.5 13.5 0 001.5 5.9 8.8 8.8 0 003.3 3.8 8.6 8.6 0 004.8 1.6 13.4 13.4 0 005.8-.7 19.3 19.3 0 0010.2-7.4 19.8 19.8 0 003.4-12.4 16.5 16.5 0 00-1.5-6 10.3 10.3 0 00-3.3-3.8zm-1.7 15.6a10.9 10.9 0 01-1.5 3.5 10.8 10.8 0 01-5.9 4.6 9 9 0 01-3.5.4 5.5 5.5 0 01-4.6-3.5 10 10 0 01-.9-3.6 12.9 12.9 0 01.4-3.9 10 10 0 011.5-3.5 11.2 11.2 0 012.5-2.8 10.1 10.1 0 013.4-1.8 8.8 8.8 0 013.5-.4A5.7 5.7 0 0193 307a7.8 7.8 0 01.8 3.5 12.4 12.4 0 01-.3 3.9zM123.6 286.3l1.2 20.1v.1L112.1 290l-8.1 2.5 1.8 29 6-1.9-1.3-20.6.1-.1 13 17 7.7-2.5-1.8-29-5.9 1.9z" fill="#271c24"/><path d="M371.3 197.8v.5h.1c0-.3-.1-.4-.1-.5z"/><path d="M336.2 223.2c2.8-10.5 12.2-29.5-6.9-28.4-9.7.6-17 3.1-26.1 5.9l-49.7 15-80 24.1c-29.8 9-59.7 17.9-89.3 27.7-14.4 4.8-30 9.3-43.2 17-15.1 8.8-12.1 24.5-2.9 36.5a134.7 134.7 0 0032.7 30.3c2.5 1.5 5.7 4.2 8.2 4.4 7.2.5 14.5-3.5 21.2-6 11.5-4.3 23-8.7 34.9-11.7l68.3-23.5 89-30.6c8.3-2.9 47.4-12.7 47.7-24.2.1-3.1-1-6.1-2-9.1-2.9-8.8-4.2-18.4-1.9-27.4zm-3.5-14.6a59.3 59.3 0 00-3.1 8.6l-5 26.4c.7 3.5 4.5 10.4 5.8 12.7s1.7 3.6-2.1 5.4a84.6 84.6 0 01-10.3 4c-6.4 2.2-12.9 4-19.3 6.3L264 283.9l-96.6 33.3-43.9 15.1c-8.6 3-17.4 5.6-25.9 8.7-4.3 1.5-8.3 3.2-12.4 5-7.4 3.3-11.2.1-17.1-4.6a186.4 186.4 0 01-19.5-17.1l-7.1-12.2c-2.6-4.1-2.8-7-3.7-11.3s5.6-6.8 7.8-7.9c16.6-8.5 27.3-11.8 43.7-16.5 19.2-5.6 36.8-12.7 56.2-18l35.4-10.1c31.1-9.1 62-18.7 92.9-28.2 15-4.7 30.1-8.9 45-13.8 2.5-.9 9.4-3.7 12.8-3 1.9.4 2.7 1.8 1.1 5.3z" fill="#271c24"/><path d="M287.1 320.4c-8.6 4.1-16.1 10-24.6 14.2l-6.6 3.1a141.4 141.4 0 01-79.2 9.3 174.4 174.4 0 01-36.6-10.7l-5 1.7c-4.9 1.3-9.7 2.7-14.4 4.3l.8.4a178.4 178.4 0 0025.9 9.6c9.1 2.5 18.2 5 27.5 6.8 13.5 2.7 27.2 3.9 40.9 2.2l5.9-1c12-2.2 23.7-6.2 35.3-10.1s20-7.1 29.1-13.2c3.9-2.5 7.8-5.8 9.1-10.4s-3.5-8.4-8.1-6.2z" fill="#271c24"/><path d="M269.1 293c-5.3 1.9-10 6-14.9 8.8a168.9 168.9 0 01-16.6 8c-11.4 4.8-23.5 8.2-35.9 8.6-3 .1-6 0-9-.2l-24.2 8.4 6.9 1.3c13.2 2.1 26.1 3.6 38.9 1.3 14.5-2.5 28.9-9.3 42.6-15.1 6.7-2.8 16.2-5.8 19.7-12.8 2-4.2-3.3-9.8-7.5-8.3zM306.1 224.6l1.8 29 6-1.9-1.3-20.6h.1l13 16.9 1.6-.6a54.5 54.5 0 01-1-9.6l-12.1-15.7z" fill="#271c24"/><path fill="#271c24" d="M323.6 218.4l1.8 29 5.9-1.9-1.8-29-5.9 1.9z"/></svg>