<svg width="69" height="61" viewBox="0 0 69 61" fill="none" xmlns="http://www.w3.org/2000/svg">
<path id="Vector" d="M68.2728 21.9002L58.3256 2.31479C57.9769 1.71421 57.4813 1.21047 56.8844 0.850137C56.2876 0.4898 55.6088 0.284489 54.9108 0.253174H13.9343C13.2363 0.284489 12.5575 0.4898 11.9607 0.850137C11.3639 1.21047 10.8682 1.71421 10.5196 2.31479L0.572397 21.9002C0.364637 22.4149 0.263647 22.9658 0.275466 23.52V58.5676C0.275466 59.0753 0.47881 59.5623 0.840765 59.9213C1.20272 60.2803 1.69364 60.482 2.20552 60.482H9.33187C9.84376 60.482 10.3347 60.2803 10.6966 59.9213C11.0586 59.5623 11.2619 59.0753 11.2619 58.5676V51.2047H57.5832V58.5676C57.5832 59.0753 57.7866 59.5623 58.1485 59.9213C58.5105 60.2803 59.0014 60.482 59.5133 60.482H66.6396C67.1515 60.482 67.6424 60.2803 68.0044 59.9213C68.3663 59.5623 68.5697 59.0753 68.5697 58.5676V23.52C68.5193 22.9724 68.4199 22.4303 68.2728 21.9002ZM13.0435 40.1603C11.9864 40.1603 10.9531 39.8494 10.0741 39.2668C9.19518 38.6843 8.51013 37.8564 8.1056 36.8877C7.70107 35.919 7.59522 34.8531 7.80145 33.8247C8.00768 32.7964 8.51672 31.8518 9.2642 31.1104C10.0117 30.369 10.964 29.8641 12.0008 29.6595C13.0376 29.455 14.1122 29.5599 15.0889 29.9612C16.0655 30.3624 16.9002 31.0419 17.4875 31.9137C18.0748 32.7855 18.3883 33.8105 18.3883 34.859C18.3883 35.5551 18.25 36.2445 17.9814 36.8877C17.7128 37.5309 17.3191 38.1153 16.8228 38.6076C16.3265 39.0998 15.7373 39.4903 15.0889 39.7567C14.4404 40.0232 13.7454 40.1603 13.0435 40.1603ZM55.6532 40.1603C54.5961 40.1603 53.5627 39.8494 52.6838 39.2668C51.8048 38.6843 51.1198 37.8564 50.7153 36.8877C50.3107 35.919 50.2049 34.8531 50.4111 33.8247C50.6173 32.7964 51.1264 31.8518 51.8739 31.1104C52.6213 30.369 53.5737 29.8641 54.6105 29.6595C55.6472 29.455 56.7219 29.5599 57.6985 29.9612C58.6752 30.3624 59.5099 31.0419 60.0972 31.9137C60.6845 32.7855 60.9979 33.8105 60.9979 34.859C60.9985 36.2398 60.4558 37.5664 59.4853 38.5564C58.5149 39.5465 57.1933 40.1219 55.8016 40.1603H55.6532ZM3.98711 23.52C4.01932 22.9701 4.11903 22.4262 4.28404 21.9002L12.5981 5.11271C12.9468 4.51212 13.4424 4.00839 14.0392 3.64805C14.6361 3.28771 15.3148 3.0824 16.0128 3.05109H52.8323C53.5303 3.0824 54.2091 3.28771 54.8059 3.64805C55.4028 4.00839 55.8984 4.51212 56.247 5.11271L64.5611 21.9002C64.7689 22.4149 64.8699 22.9658 64.858 23.52H3.98711Z" fill="#34C397"/>
</svg>
