<svg data-name="Layer 1" xmlns="http://www.w3.org/2000/svg" width="82" height="61"><path d="M15.6 60.7C4.7 60.8-1.8 52.4.4 41.2S8.3 23 15.6 15.9c5.8-5.6 12.6-10.1 19.5-14.3A7.6 7.6 0 0139.2.3c.8 0 1.7.2 1.9 1.2s-.1 2-1.1 2.3-2.6 1.7-3.5 3c-3.2 4.2-7.3 7.5-10.1 12.1A32.9 32.9 0 0023 25c-.3 1-.2 1.5 1.1 1.5a12.9 12.9 0 011.9.4c7.6 1.6 11.9 7.8 10.7 15.5a21.5 21.5 0 01-21.1 18.3zM43.2 43.9c.5-7.5 4.1-15.2 9.3-22.2S64.8 7.9 73.8 4.6c1.7-.6 3.2-1.7 4.9-2.3s2.5-.7 3.1.8a2.4 2.4 0 01-1.4 3.2c-6.9 3.1-11.1 9.2-15.7 14.8-1.3 1.6-.4 3.5-1.3 5.2s.6.6 1 .6a25.1 25.1 0 002.7.4c7.7-.4 11.6 6.6 11.7 12.2.1 7.2-3.7 12.2-9.8 15.6a35.3 35.3 0 01-12.7 3.8c-7.6.8-13.2-5.1-13.1-15z" fill="#271c24"/><path d="M19 25L7.2 45.4c-1-2.3-1.3-3.9.6-5.3a7.2 7.2 0 001.8-2.5 55.1 55.1 0 016.9-10.8A4 4 0 0119 25z" fill="#f7f8f8"/><path d="M18.9 35.7c-3.5 4.7-7.1 9.3-9.7 14.8-1.3-4.2 2.7-11.2 9.7-14.8z" fill="#f6f6f6"/><path d="M17.6 53.8a50.5 50.5 0 017.5-15.7c.6-.7 1.5-2 2.3-1.4s-.4 1.7-.8 2.4a66.2 66.2 0 00-6.9 12.1 4.5 4.5 0 01-2.1 2.6z" fill="#f4f4f4"/><path d="M22.6 51.6a19.7 19.7 0 015.5-10.8c.4-.3.8-1.1 1.4-.7a1.5 1.5 0 01.4 1.8 4.1 4.1 0 01-.7 1.5z" fill="#f6f6f6"/><path d="M21.8 17.3c-.6 2.4-2.3 3.8-4.4 5a15.2 15.2 0 014.4-5z" fill="#d7d7d7"/><path d="M55.5 52.9a3.6 3.6 0 01.5-3.2c2.6-5.7 5.5-11.3 10.4-15.6a7 7 0 001.5-1.9c.4-.5.6-1.1 1.3-.5s.7 1 .2 1.6l-3.5 4.5C62.7 42 59.8 46.5 57 51c-.4.7-.6 1.6-1.5 1.9z" fill="#f9f9fa"/><path d="M53.4 48.6c.6-7.4 7.5-16.7 13-17.4-5.6 4.8-9.3 11.1-13 17.4z" fill="#f7f8f8"/><path d="M59.3 53.5c.5-4.7 7.6-15.8 12.2-18.9.6 1.7-.5 2.9-1.5 3.9a41 41 0 00-7.3 9.8L61 51.8c-.4.6-.6 1.5-1.7 1.7z" fill="#f6f6f6"/><path d="M71.9 39.5c-1.2 4.8-4.7 8.2-7.4 12.1 1.5-4.6 3.1-9.2 7.4-12.1z" fill="#f5f6f6"/><path d="M53.6 40.1a12.8 12.8 0 012.9-6.2c.6-.6 1.5-1.2 2.2-.6s-.1 1.4-.5 1.9a26.1 26.1 0 01-4.6 4.9z" fill="#f3f3f3"/></svg>