<svg width="70" height="74" viewBox="0 0 70 74" fill="none" xmlns="http://www.w3.org/2000/svg">
<path d="M62.9866 39.002C61.5261 39.0265 60.0927 39.5534 58.8147 40.5358C57.0969 41.8992 42.1273 55.0215 39.6733 57.4074C37.2193 59.7933 35.3787 58.9412 33.6609 57.4074L1.02231 31.5036C1.02231 31.5036 0.899606 27.2431 1.02231 26.0501C1.14501 24.8572 2.74013 23.153 5.68497 21.2784C8.6298 19.4037 22.127 7.64476 24.3356 5.94056C26.5442 4.23636 26.1761 5.59972 27.6485 2.0209C29.121 -1.55792 42.1273 0.998375 47.5262 3.38426C52.9251 5.77014 64.7044 13.0982 68.5082 23.8347C72.3119 34.5711 63.9682 39.002 62.9866 39.002ZM12.679 23.153C11.6973 24.5163 13.0471 27.0726 15.6238 29.1177L27.2804 38.3204L31.8204 41.8992L36.115 45.3076C38.4463 47.1822 41.1457 47.6935 42.0046 46.5005C42.8635 45.3076 41.6365 42.5809 39.0598 40.5358L27.2804 31.1627L22.7405 27.5839L18.4459 24.1755C16.36 22.3009 13.6606 21.7896 12.679 23.153ZM26.5442 17.87C24.2129 15.9953 21.5135 15.4841 20.6546 16.677C19.7956 17.87 21.0227 20.5967 23.5994 22.6417L35.3787 32.0148L39.9187 35.5936L44.2132 39.002C46.5446 40.8767 49.244 41.3879 50.1029 40.195C50.9618 39.002 49.7348 36.2753 47.1581 34.2303L35.3787 24.8572L30.8388 21.2784L26.5442 17.87ZM56.1153 28.6064L44.336 19.2333L39.796 15.6545L35.5014 12.2461C33.1701 10.3715 30.4707 9.86022 29.6118 11.0532C28.7529 12.2461 29.9799 14.9728 32.5566 17.0179L44.336 26.391L48.8759 29.9698L53.1705 33.3782C55.5018 35.2528 58.2012 35.7641 59.0601 34.5711C59.9191 33.3782 58.692 30.481 56.1153 28.436V28.6064ZM1.75852 39.5133L33.6609 64.9059C34.5121 65.8604 35.5731 66.3811 36.6671 66.3811C37.7611 66.3811 38.8221 65.8604 39.6733 64.9059C42.25 62.52 57.2196 49.2272 58.8147 48.0343C60.0927 47.0519 61.5261 46.5249 62.9866 46.5005C64.2762 46.123 65.4873 45.3441 66.5287 44.2223C67.5701 43.1006 68.4147 41.6653 68.999 40.0246C71.453 49.9089 64.0909 53.8286 63.1093 53.8286C61.6488 53.853 60.2154 54.38 58.9374 55.3624C57.2196 56.7257 42.25 69.8481 39.796 72.234C37.342 74.6198 35.5014 73.7677 33.7836 72.234L1.14501 46.3301C1.14501 46.3301 1.02231 42.0696 1.14501 40.8767C1.22979 40.3373 1.44661 39.8555 1.75852 39.5133Z" fill="#34C397"/>
</svg>
