<svg width="142" height="141" viewBox="0 0 142 141" fill="none" xmlns="http://www.w3.org/2000/svg">
<g id="sponsor-luchador 1">
<path id="Vector" d="M124.242 65.4246C123.306 54.7462 115.625 46.8779 106.07 46.8779C102.968 46.8958 99.9226 47.7161 97.2308 49.259C94.5389 50.8018 92.2921 53.0148 90.7085 55.6829C89.2146 53.019 87.0396 50.7998 84.4062 49.2527C81.7727 47.7056 78.7755 46.886 75.7213 46.8779C66.1669 46.8779 58.6733 54.7462 57.5493 65.4246C57.2876 67.8118 57.4783 70.227 58.1113 72.5435C58.4453 73.9481 58.8837 75.3257 59.4227 76.665C62.3241 74.6037 65.7926 73.4912 69.3517 73.4802C78.5314 73.4802 85.8376 80.7865 86.7743 90.9029C86.9793 93.1045 86.789 95.3251 86.2123 97.4598C85.6997 99.4791 84.9449 101.429 83.9642 103.267L90.7085 109.075L114.313 88.0928C118.857 84.0187 122.058 78.6622 123.493 72.7309C124.213 70.3668 124.467 67.8856 124.242 65.4246Z" fill="#34C397"/>
<path id="Vector_2" d="M83.2148 91.0896C82.4655 83.0339 76.6579 77.0391 69.539 77.0391C67.1863 77.0691 64.8812 77.7056 62.8465 78.8871C60.8118 80.0685 59.1163 81.7549 57.9239 83.7833C56.791 81.7444 55.1348 80.0446 53.126 78.8591C51.1173 77.6736 48.8286 77.0453 46.4962 77.0391C39.1899 77.0391 33.5697 83.0339 32.8203 91.0896C32.5992 92.9079 32.7263 94.7517 33.195 96.5224C34.2456 101.072 36.6646 105.191 40.1266 108.325L57.7366 124.436L75.7212 108.325C79.1832 105.191 81.6022 101.072 82.6528 96.5224C83.1799 94.7629 83.3706 92.9198 83.2148 91.0896Z" fill="#34C397"/>
<path id="Vector_3" d="M101.574 40.32C100.263 26.8315 90.7085 17.0898 78.906 17.0898C75.0074 17.1009 71.1786 18.1256 67.7956 20.0634C64.4127 22.0012 61.5918 24.7855 59.61 28.1429C57.7338 24.817 55.0143 22.0442 51.7254 20.1038C48.4365 18.1634 44.6944 17.1238 40.876 17.0898C29.0735 17.0898 19.5192 26.8315 18.2078 40.32C17.9056 43.2761 18.1597 46.2626 18.9572 49.125C20.7696 56.5914 24.8227 63.3246 30.5723 68.4211L38.4406 75.3526C41.047 73.9385 43.9835 73.2451 46.9472 73.3439C49.9109 73.4427 52.7947 74.3301 55.3012 75.9147L54.5518 73.4792C53.8465 70.7278 53.6559 67.8697 53.9898 65.0489C55.1138 52.3098 64.2935 43.3175 75.7213 43.3175C78.5645 43.3149 81.3781 43.8955 83.9881 45.0233C86.5981 46.1511 88.9491 47.8021 90.8958 49.8744C93.8646 46.8711 97.6378 44.7894 101.762 43.8795C101.821 42.6897 101.758 41.497 101.574 40.32ZM43.8734 30.0163C40.4451 30.0163 37.1572 31.3782 34.733 33.8024C32.3088 36.2266 30.9469 39.5145 30.9469 42.9428C31.0354 43.1969 31.0617 43.4684 31.0238 43.7348C30.9858 44.0011 30.8847 44.2545 30.7288 44.4738C30.5729 44.6931 30.3669 44.8719 30.1278 44.9953C29.8887 45.1186 29.6236 45.183 29.3546 45.183C29.0855 45.183 28.8204 45.1186 28.5813 44.9953C28.3422 44.8719 28.1362 44.6931 27.9803 44.4738C27.8244 44.2545 27.7233 44.0011 27.6853 43.7348C27.6474 43.4684 27.6737 43.1969 27.7622 42.9428C27.7622 38.6698 29.4596 34.5719 32.481 31.5504C35.5025 28.529 39.6004 26.8315 43.8734 26.8315C44.2041 26.9466 44.4907 27.1617 44.6935 27.4471C44.8963 27.7324 45.0053 28.0738 45.0053 28.4239C45.0053 28.774 44.8963 29.1154 44.6935 29.4008C44.4907 29.6861 44.2041 29.9013 43.8734 30.0163Z" fill="#34C397"/>
</g>
</svg>
