<svg width="151" height="151" viewBox="0 0 151 151" fill="none" xmlns="http://www.w3.org/2000/svg">
<g id="sponsor-giant 1">
<path id="Vector" d="M57.1787 85.9695C56.4207 83.0125 56.2159 79.9409 56.5747 76.9095C57.7827 63.2188 67.648 53.5548 79.9293 53.5548C82.985 53.5521 86.0087 54.176 88.8136 55.3881C91.6186 56.6001 94.1452 58.3744 96.2373 60.6015C99.4279 57.3739 103.483 55.1366 107.915 54.1588C108.045 52.8871 108.045 51.6053 107.915 50.3335C106.707 35.8375 96.4387 25.3682 83.5533 25.3682C79.3635 25.38 75.2487 26.4813 71.6131 28.5638C67.9774 30.6464 64.9458 33.6387 62.816 37.2468C60.7996 33.6725 57.877 30.6926 54.3425 28.6072C50.808 26.5219 46.7864 25.4047 42.6827 25.3682C29.7973 25.3682 19.5293 35.8375 18.3213 50.3335C17.9965 53.5103 18.2697 56.7199 19.1267 59.7962C21.0193 67.7955 25.3031 75.0288 31.408 80.5335L62.6147 108.921L67.8493 104.291C62.5456 99.384 58.8296 93.0038 57.1787 85.9695ZM45.7027 39.4615C42.0183 39.4615 38.4848 40.9251 35.8795 43.5304C33.2743 46.1356 31.8107 49.6691 31.8107 53.3535C31.9057 53.6266 31.934 53.9184 31.8932 54.2046C31.8524 54.4909 31.7437 54.7632 31.5762 54.9989C31.4087 55.2345 31.1873 55.4267 30.9303 55.5593C30.6734 55.6919 30.3885 55.761 30.0993 55.761C29.8102 55.761 29.5253 55.6919 29.2683 55.5593C29.0114 55.4267 28.7899 55.2345 28.6224 54.9989C28.4549 54.7632 28.3462 54.4909 28.3055 54.2046C28.2647 53.9184 28.293 53.6266 28.388 53.3535C28.388 48.7614 30.2122 44.3573 33.4593 41.1102C36.7065 37.863 41.1105 36.0388 45.7027 36.0388C46.058 36.1625 46.366 36.3937 46.584 36.7004C46.802 37.007 46.9191 37.3739 46.9191 37.7502C46.9191 38.1264 46.802 38.4933 46.584 38.8C46.366 39.1066 46.058 39.3378 45.7027 39.4615Z" fill="#34C397"/>
<path id="Vector_2" d="M132.075 77.5131C131.068 66.0371 122.813 57.5811 112.545 57.5811C109.211 57.6003 105.938 58.4818 103.045 60.1399C100.153 61.798 97.7379 64.1764 96.036 67.0437C94.4305 64.1808 92.0931 61.7959 89.2629 60.1332C86.4328 58.4705 83.2117 57.5897 79.9293 57.5811C69.6613 57.5811 61.608 66.0371 60.4 77.5131C60.1188 80.0786 60.3237 82.6741 61.004 85.1637C62.5466 91.5381 65.9865 97.2947 70.8693 101.673L96.036 124.424L121.605 101.673C126.488 97.2947 129.928 91.5381 131.471 85.1637C132.151 82.6741 132.356 80.0786 132.075 77.5131Z" fill="#34C397"/>
</g>
</svg>
