<svg width="0" height="0" style="position:absolute"><defs/><symbol viewBox="0 0 32 32" id="email" xmlns="http://www.w3.org/2000/svg"><path d="M23.2 10.5H8.8c-.4 0-.8.4-.8.8v9.4c0 .4.3.8.8.8h14.5c.4 0 .8-.4.8-.8v-9.4c-.1-.4-.4-.8-.9-.8zM16 17.7l-6.5-5.4L16 16l6.5-3.8-6.5 5.5z"/></symbol><symbol viewBox="0 0 32 32" id="facebook" xmlns="http://www.w3.org/2000/svg"><path d="M19.4 16h-2.2v8h-3.3v-8h-1.6v-2.8h1.6v-1.8c0-1.3.6-3.4 3.4-3.4h2.5v2.7H18c-.3 0-.7.1-.7.8v1.7h2.5l-.4 2.8z"/></symbol><symbol viewBox="0 0 32 32" id="instagram" xmlns="http://www.w3.org/2000/svg"><path d="M20.2 6.3h-8.4a5.2 5.2 0 00-5.2 5.2v8.9a5.2 5.2 0 005.2 5.2h8.4a5.2 5.2 0 005.2-5.2v-8.9a5.2 5.2 0 00-5.2-5.2zM16 20.6a4.6 4.6 0 01-4.6-4.6 4.6 4.6 0 014.6-4.6c3.1.1 4.7 2.1 4.6 4.6a4.6 4.6 0 01-4.6 4.6zm5.7-9a1.3 1.3 0 111.3-1.3 1.3 1.3 0 01-1.3 1.3z"/></symbol><symbol viewBox="0 0 32 32" id="twitter" xmlns="http://www.w3.org/2000/svg"><path d="M22.4 12.7v.4c0 4.3-3.3 9.3-9.3 9.3-1.9 0-3.6-.5-5-1.5h.8c1.5 0 3-.5 4.1-1.4-1.4 0-2.6-1-3.1-2.3.2 0 .4.1.6.1.3 0 .6 0 .9-.1-1.5-.3-2.6-1.6-2.6-3.2.4.2.9.4 1.5.4-.9-.6-1.5-1.6-1.5-2.7 0-.6.2-1.2.4-1.7 1.6 2 4 3.3 6.8 3.4-.1-.2-.1-.5-.1-.7 0-1.8 1.5-3.3 3.3-3.3.9 0 1.8.4 2.4 1 .7-.1 1.5-.4 2.1-.8-.2.8-.8 1.4-1.4 1.8.7-.1 1.3-.3 1.9-.5-.6.8-1.2 1.4-1.8 1.8z"/></symbol></svg>