<svg width="70" height="74" viewBox="0 0 70 74" fill="none" xmlns="http://www.w3.org/2000/svg">
<path id="Vector" d="M56.2968 0.211182H13.2386C6.26442 0.211182 0.503113 9.22214 0.503113 15.7378V51.3657C0.503113 57.7427 6.1128 66.8923 13.2386 66.8923H14.6031L9.44829 71.7443C9.44829 72.2591 9.67193 72.7527 10.07 73.1167C10.468 73.4807 11.0079 73.6852 11.5709 73.6852H57.9645C58.5275 73.6852 59.0674 73.4807 59.4654 73.1167C59.8635 72.7527 60.0871 72.2591 60.0871 71.7443L54.9323 67.0309H56.2968C63.271 67.0309 69.0323 58.0199 69.0323 51.5043V15.7378C69.0323 9.36077 63.271 0.211182 56.2968 0.211182ZM14.7548 59.6835C13.6153 59.6835 12.5014 59.3746 11.554 58.7957C10.6065 58.2169 9.86807 57.3941 9.43201 56.4315C8.99595 55.4689 8.88186 54.4097 9.10416 53.3878C9.32646 52.366 9.87517 51.4273 10.6809 50.6906C11.4866 49.9538 12.5132 49.4521 13.6308 49.2488C14.7484 49.0456 15.9068 49.1499 16.9595 49.5486C18.0123 49.9473 18.9121 50.6225 19.5451 51.4888C20.1782 52.3552 20.5161 53.3737 20.5161 54.4156C20.5161 55.8127 19.9091 57.1526 18.8286 58.1406C17.7482 59.1285 16.2828 59.6835 14.7548 59.6835ZM30.3709 36.9482H8.99346V14.7673H30.3709V36.9482ZM54.7807 59.6835C53.6412 59.6835 52.5273 59.3746 51.5799 58.7957C50.6324 58.2169 49.894 57.3941 49.4579 56.4315C49.0219 55.4689 48.9078 54.4097 49.1301 53.3878C49.3524 52.366 49.9011 51.4273 50.7068 50.6906C51.5125 49.9538 52.5391 49.4521 53.6567 49.2488C54.7743 49.0456 55.9327 49.1499 56.9854 49.5486C58.0382 49.9473 58.938 50.6225 59.571 51.4888C60.2041 52.3552 60.542 53.3737 60.542 54.4156C60.542 55.8127 59.935 57.1526 58.8545 58.1406C57.7741 59.1285 56.3087 59.6835 54.7807 59.6835ZM60.542 36.9482H39.1645V14.7673H60.542V36.9482Z" fill="#34C397"/>
</svg>
